<?xml version="1.0" standalone="no"?>
<!DOCTYPE svg PUBLIC "-//W3C//DTD SVG 1.1//EN" "http://www.w3.org/Graphics/SVG/1.1/DTD/svg11.dtd" >
<svg xmlns="http://www.w3.org/2000/svg">
<metadata>Generated by IcoMoon</metadata>
<defs>
<font id="icomoon" horiz-adv-x="1024">
<font-face units-per-em="1024" ascent="960" descent="-64" />
<missing-glyph horiz-adv-x="1024" />
<glyph unicode="&#x20;" horiz-adv-x="512" d="" />
<glyph unicode="&#xe900;" glyph-name="Add" d="M511.106-63.996c-85.791-0.016-172.081 21.392-250.236 65.395-14.5 8.161-19.641 26.539-11.471 41.040 8.152 14.5 26.53 19.648 41.040 11.471 175.802-98.965 398.339-68.362 541.152 74.499 176.224 176.226 176.224 462.948 0 639.175-176.226 176.255-462.973 176.233-639.19 0-176.217-176.226-176.217-462.948 0-639.175 11.769-11.769 11.769-30.854 0-42.624-11.754-11.769-30.839-11.769-42.608 0-199.718 199.734-199.718 524.688 0 724.415 199.727 199.718 524.673 199.734 724.422 0 199.718-199.727 199.718-524.682 0-724.415-98.386-98.384-230.153-149.781-363.109-149.781zM512.001 181.721c-16.643 0-30.132 13.497-30.132 30.132v452.608c0 16.634 13.488 30.132 30.132 30.132 16.634 0 30.132-13.497 30.132-30.132v-452.608c0-16.634-13.497-30.132-30.132-30.132zM738.303 408.025h-452.599c-16.643 0-30.132 13.497-30.132 30.132s13.488 30.132 30.132 30.132h452.599c16.634 0 30.132-13.497 30.132-30.132s-13.495-30.132-30.132-30.132z" />
<glyph unicode="&#xe901;" glyph-name="Base" d="M383.383 516.322c0-11.973-9.704-21.678-21.678-21.678h-189.737c-11.973 0-21.678 9.704-21.678 21.678s9.704 21.678 21.678 21.678h189.737c11.973 0 21.678-9.704 21.678-21.678zM316.623 447.016h-99.568c-11.973 0-21.678-9.704-21.678-21.678s9.704-21.678 21.678-21.678h99.568c11.973 0 21.678 9.704 21.678 21.678s-9.707 21.678-21.678 21.678zM1017.041 163.008c8.789-8.129 9.324-21.841 1.195-30.633-36.156-39.090-95.394-35.465-170.388-30.879-91.362 5.59-205.061 12.542-325.526-52.701-6.441-3.485-14.206-3.485-20.647 0-49.415 26.765-97.701 41.38-143.766 48.924v-99.387c0-7.679-4.063-14.787-10.68-18.681-6.616-3.892-14.801-3.998-21.516-0.275l-58.872 32.668-58.879-32.668c-3.273-1.816-6.896-2.722-10.516-2.722-3.806 0-7.609 1-10.998 2.996-6.616 3.897-10.68 11-10.68 18.681v103.142c-74.814-4.581-133.915-8.122-170.005 30.9-8.129 8.789-7.594 22.504 1.195 30.635 8.791 8.122 22.504 7.592 30.633-1.195 22.2-24.002 72.384-20.929 135.914-17.043 89.36 5.468 210.877 12.893 338.494-52.416 127.616 65.31 249.138 57.884 338.496 52.416 63.532-3.885 113.716-6.956 135.914 17.043 8.132 8.791 21.846 9.319 30.633 1.192zM314.554 102.942c-33.396 2.662-65.36 2.259-95.43 0.932v-68.723l37.199 20.639c6.542 3.627 14.493 3.625 21.035 0l37.194-20.639v67.791zM640.61 607.31c0-11.973 9.704-21.678 21.678-21.678h189.737c11.973 0 21.678 9.704 21.678 21.678s-9.704 21.678-21.678 21.678h-189.737c-11.971 0-21.678-9.707-21.678-21.678zM1024 897.665v-658.896c0-5.458-2.057-10.714-5.764-14.719-36.156-39.085-95.394-35.462-170.388-30.876-91.34 5.583-205.029 12.532-325.465-52.667-0.236-0.13-0.474-0.253-0.713-0.371-3.095-1.546-6.395-2.281-9.651-2.281-1.51 0-6.14 0.388-10.646 2.784-120.809 64.202-233.938 58.115-325.217 52.537-75-4.586-134.235-8.206-170.388 30.876-3.709 4.003-5.766 9.261-5.766 14.719v658.898c0 7.64 4.020 14.714 10.586 18.623 6.564 3.909 14.7 4.071 21.417 0.438 120.463-65.245 234.166-58.289 325.521-52.703 64.857 3.965 117.929 7.211 154.477-17.265 36.548 24.479 89.618 21.23 154.475 17.263 91.369-5.595 205.063-12.542 325.523 52.701 6.718 3.637 14.854 3.471 21.417-0.438 6.561-3.907 10.583-10.983 10.583-18.623zM490.319 808.895c-24.428 18.327-71.623 15.444-130.15 11.86-84.28-5.15-197.18-12.055-316.814 41.98v-614.43c24.431-18.322 71.628-15.437 130.15-11.86 26.632 1.631 56.131 3.435 87.787 3.435 68.523 0 147.196-8.452 229.026-45.412v614.428zM980.645 862.73c-119.634-54.035-232.533-47.13-316.816-41.98-58.53 3.577-105.724 6.467-130.152-11.86v-614.423c119.636 54.033 232.538 47.132 316.818 41.977 58.522-3.577 105.722-6.465 130.152 11.86v614.426zM852.027 537.999h-189.737c-11.973 0-21.678-9.704-21.678-21.678s9.704-21.678 21.678-21.678h189.737c11.973 0 21.678 9.704 21.678 21.678s-9.707 21.678-21.678 21.678zM361.705 628.988h-189.737c-11.973 0-21.678-9.704-21.678-21.678s9.704-21.678 21.678-21.678h189.737c11.973 0 21.678 9.704 21.678 21.678s-9.704 21.678-21.678 21.678zM806.94 447.016h-99.563c-11.973 0-21.678-9.704-21.678-21.678s9.704-21.678 21.678-21.678h99.563c11.973 0 21.678 9.704 21.678 21.678s-9.704 21.678-21.678 21.678z" />
<glyph unicode="&#xe902;" glyph-name="Catalog" d="M679.006 751.593l-100.997 112.219h-578.009v-831.624h1024v719.405h-344.994zM638.567 751.593h-71.78l-73.944 82.16h71.778l73.946-82.16zM452.404 833.753l73.944-82.16h-83.002l-73.944 82.16h83.002zM993.941 62.247h-963.883v771.507h298.904l100.997-112.219h563.982v-659.288zM927.812 655.405h-350.685v-158.309h350.685v158.309zM897.753 527.155h-290.568v98.192h290.568v-98.192zM736.438 591.28h112.219v-30.059h-112.219v30.059zM656.282 591.28h48.094v-30.059h-48.094v30.059z" />
<glyph unicode="&#xe903;" glyph-name="Information" d="M511.98 960c-282.299 0-511.98-229.683-511.98-512s229.681-512 511.98-512c282.319 0 512.020 229.683 512.020 512s-229.701 512-512.020 512zM511.98 3.149c-245.279 0-444.831 199.562-444.831 444.851 0 245.292 199.549 444.849 444.831 444.849 245.309 0 444.867-199.56 444.867-444.849 0.003-245.289-199.557-444.851-444.867-444.851zM502.51 637.517c24.719 0 44.769 20.050 44.769 44.772s-20.050 44.772-44.769 44.772c-24.74 0-44.769-20.050-44.769-44.772s20.029-44.772 44.769-44.772zM573.67 244.26h-28.081v320.056c0 18.542-15.030 33.577-33.569 33.577h-61.681c-18.54 0-33.569-15.035-33.569-33.577s15.030-33.574 33.569-33.574h28.101v-286.482h-28.101c-18.54 0-33.569-15.032-33.569-33.574 0-18.54 15.030-33.574 33.569-33.574h123.331c18.55 0 33.58 15.035 33.58 33.574 0 18.542-15.030 33.574-33.58 33.574z" />
<glyph unicode="&#xe904;" glyph-name="Knowledge" d="M1024 93.094l-192.779 694.33-166.173-46.137 18.358-66.119h-184.831v92.090h-172.457v-68.151h-93.395v150.23h-232.724v-802.674h714.917v515.019l142.911-514.723 166.173 46.134zM359.181 734.197h106.333v-81.876h-106.333v81.876zM359.181 515.187h106.333v-375.967h-106.333v375.967zM359.181 548.249v18.973h106.333v-18.973h-106.333zM359.181 600.284v18.975h106.333v-18.975h-106.333zM199.662 144.060h-166.6v608.314h166.6v-608.314zM199.662 816.276v-30.84h-166.6v30.84h166.6zM33.062 79.724v31.274h166.6v-31.274h-166.6zM326.119 79.724h-93.395v586.322h93.395v-586.322zM359.181 79.724v26.434h106.333v-26.434h-106.333zM681.855 79.724h-183.279v562.385h183.279v-562.385zM880.84 87.659l-116.25 418.696 102.458 28.449 116.25-418.696-102.458-28.449zM755.746 538.211l-9.11 32.806 102.458 28.449 9.11-32.806-102.458-28.449zM808.208 746.725l32.041-115.403-102.458-28.449-32.041 115.403 102.458 28.449zM536.969 606.334h106.492v-33.062h-106.492v33.062zM536.969 548.249h106.492v-33.062h-106.492v33.062zM536.969 490.161h106.492v-33.062h-106.492v33.062zM536.969 153.74h106.492v-33.062h-106.492v33.062zM262.89 359.876h33.062v-55.665h-33.062v55.665zM262.89 272.745h33.062v-125.853h-33.062v125.853zM262.89 541.396h33.062v-150.059h-33.062v150.059zM262.89 628.529h33.062v-58.087h-33.062v58.087z" />
<glyph unicode="&#xe905;" glyph-name="Message" d="M996.696 628.963l-303.733 303.733c-36.407 36.407-95.63 36.407-132.030 0l-533.632-533.625c-36.402-36.407-36.402-95.63 0-132.032l303.733-303.737c36.407-36.402 95.632-36.404 132.032 0l533.628 533.628c36.407 36.407 36.402 95.632 0.002 132.034zM387.019 0.159c-4.352 1.491-8.5 3.679-11.977 7.154l-303.733 303.731c-0.082 0.086-0.101 0.194-0.19 0.28l315.897 0.002v-311.167zM89.827 373.57l496.612 496.614 0.004-483.041c-0.004-7.262-6.321-13.583-13.585-13.583l-483.030 0.011zM449.251 37.506v273.818h123.61c20.261 0 39.304 7.888 53.615 22.199 14.313 14.313 22.197 33.351 22.199 53.617v123.608l273.806-0.011-473.23-473.232zM648.673 572.983v315.897c0.084-0.086 0.196-0.105 0.283-0.192l303.733-303.733c3.471-3.473 5.662-7.618 7.144-11.983l-311.159 0.011zM30.325 828.067h318.718c16.744 0 30.323 13.575 30.323 30.321s-13.577 30.323-30.323 30.323h-318.718c-16.748 0-30.323-13.575-30.323-30.323 0-16.746 13.575-30.321 30.323-30.321zM30.325 708.944h199.858c16.746 0 30.321 13.575 30.321 30.323 0 16.744-13.575 30.321-30.321 30.321h-199.858c-16.748 0-30.323-13.575-30.323-30.321 0-16.748 13.575-30.323 30.323-30.323zM30.325 593.428h129.038c16.744 0 30.323 13.575 30.323 30.323s-13.577 30.323-30.323 30.323h-129.038c-16.748 0-30.323-13.577-30.323-30.323s13.575-30.323 30.323-30.323zM159.363 35.862h-129.038c-16.748 0-30.323-13.577-30.323-30.323s13.575-30.323 30.323-30.323h129.038c16.744 0 30.323 13.575 30.323 30.323 0 16.746-13.577 30.323-30.323 30.323z" />
<glyph unicode="&#xe906;" glyph-name="My_pages" d="M329.6 227.2c0 4.8 1.6 8 1.6 12.8h-273.6c-14.4 0-27.2 12.8-27.2 27.2v508.8h689.6v-134.4c9.6 1.6 20.8 1.6 30.4 0v259.2c0 32-25.6 57.6-57.6 57.6h-635.2c-32 0-57.6-25.6-57.6-57.6v-635.2c0-32 25.6-57.6 57.6-57.6h273.6c-1.6 8-1.6 14.4-1.6 19.2zM30.4 902.4c0 14.4 12.8 27.2 27.2 27.2h635.2c14.4 0 27.2-12.8 27.2-27.2v-96h-689.6v96zM216 852.8h424c8 0 14.4 6.4 14.4 14.4s-6.4 14.4-14.4 14.4h-424c-8 0-14.4-6.4-14.4-14.4s6.4-14.4 14.4-14.4zM145.6 852.8h9.6c8 0 14.4 6.4 14.4 14.4s-6.4 14.4-14.4 14.4h-9.6c-8 0-14.4-6.4-14.4-14.4s6.4-14.4 14.4-14.4zM84.8 852.8h9.6c8 0 14.4 6.4 14.4 14.4s-6.4 14.4-14.4 14.4h-9.6c-8 0-14.4-6.4-14.4-14.4s6.4-14.4 14.4-14.4zM968 656h-608c-32 0-56-24-56-56v-609.6c0-30.4 24-56 56-56h609.6c30.4 0 56 24 56 56v609.6c-1.6 32-25.6 56-57.6 56zM360 627.2h609.6c14.4 0 27.2-11.2 27.2-27.2v-92.8h-664v92.8c0 16 11.2 27.2 27.2 27.2zM968-35.2h-608c-14.4 0-27.2 11.2-27.2 27.2v488h662.4v-488c0-16-11.2-27.2-27.2-27.2zM510.4 553.6h406.4c8 0 14.4 6.4 14.4 14.4s-6.4 14.4-14.4 14.4h-406.4c-8 0-14.4-6.4-14.4-14.4s6.4-14.4 14.4-14.4zM443.2 553.6h9.6c8 0 14.4 6.4 14.4 14.4s-6.4 14.4-14.4 14.4h-9.6c-8 0-14.4-6.4-14.4-14.4s6.4-14.4 14.4-14.4zM385.6 553.6h9.6c8 0 14.4 6.4 14.4 14.4s-6.4 14.4-14.4 14.4h-9.6c-8 0-14.4-6.4-14.4-14.4s6.4-14.4 14.4-14.4z" />
<glyph unicode="&#xe907;" glyph-name="Mypage" d="M414.81 783.361l194.38-27.77v-35.058h30.059v61.129l-254.497 36.355v-97.484h30.059zM862.943 438.576l-223.695 63.913v68.82h-0.337c20.791 27.506 32.399 61.362 32.399 96.188v14.749l32.063 32.063v150.506c0 52.485-42.701 95.186-95.186 95.186h-192.376c-52.485 0-95.186-42.701-95.186-95.186v-150.506l32.063-32.063v-9.807c0-37.978 12.597-73.153 33.776-101.13h-1.713v-68.82l-223.695-63.913-33.852-502.576h769.591l-33.852 502.576zM864.645-33.941h-97.146v327.708l68.885 91.845 28.261-419.553zM414.81 542.264c24.247-19.326 54.040-31.628 86.615-33.738 3.591-0.232 7.158-0.347 10.717-0.347 35.493 0.002 69.193 11.506 97.048 33.061v-41.367l-97.19-55.536-97.19 55.536v42.391zM537.622 155.068l-49.533 49.533 1.701 47.198 46.395-56.937 1.437-39.794zM483.821 86.205l58.396-58.396 1.409-39.056-61.115 61.115 1.311 36.337zM485.3 127.234l1.311 36.337 52.605-52.605 1.409-39.056-55.324 55.324zM491.588 297.181l-0.164-0.134 1.325 36.73 39.862-39.862 1.777-49.26-42.8 52.527zM529.464 381.137l1.557-43.122-36.79 36.79 0.224 6.228 17.546 21.933 17.462-21.829zM449.41-33.941h-162.85v354.308l-84.555 98.647 130.218 37.205 116.169-132.763 14.564 18.206-13.546-375.602zM481.030 8.838l42.782-42.78h-44.323l1.541 42.78zM560.964 341.763l14.647-18.308 116.169 132.763 131.755-37.644-86.094-114.788v-337.728h-162.918l-13.558 375.704zM659.823 465.348l-83.18-95.064-41.93 52.41 91.467 52.266 33.644-9.613zM350.685 726.756v138.058c0 35.91 29.217 65.127 65.127 65.127h192.376c35.91 0 65.127-29.217 65.127-65.127v-138.058l-32.063-32.063v-27.199c0-36.115-14.518-69.612-40.88-94.322-26.339-24.69-60.787-36.99-97.005-34.652-67.638 4.381-120.62 63.203-120.62 133.918v22.255l-32.063 32.063zM397.821 474.961l91.467-52.266-41.93-52.41-83.18 95.064 33.644 9.613zM187.867 389.321l68.634-80.074v-343.188h-97.146l28.512 423.263z" />
<glyph unicode="&#xe908;" glyph-name="Mytasks" d="M483.476 128.874h-450.604v638.268h612.234v-328.733c0-9.105 7.314-16.436 16.436-16.436 9.089 0 16.436 7.33 16.436 16.436v345.168c0 9.089-7.347 16.436-16.436 16.436h-645.105c-9.105 0-16.436-7.347-16.436-16.436v-671.14c0-9.122 7.33-16.436 16.436-16.436h467.040c9.089 0 16.436 7.314 16.436 16.436 0 9.073-7.38 16.436-16.436 16.436zM294.497 684.98c-6.443 6.426-16.814 6.426-23.24 0l-71.299-71.282-36.307 36.307c-6.443 6.426-16.814 6.426-23.24 0-6.443-6.426-6.443-16.814 0-23.24l47.927-47.927c3.189-3.205 7.396-4.816 11.62-4.816 4.208 0 8.415 1.611 11.62 4.816l82.919 82.902c6.394 6.426 6.394 16.797 0 23.24zM532.783 630.857h-213.665c-9.105 0-16.436-7.347-16.436-16.436s7.33-16.436 16.436-16.436h213.665c9.089 0 16.436 7.347 16.436 16.436s-7.396 16.436-16.436 16.436zM294.497 520.622c-6.443 6.426-16.814 6.426-23.24 0l-71.299-71.282-36.307 36.307c-6.443 6.426-16.814 6.426-23.24 0-6.443-6.426-6.443-16.814 0-23.24l47.927-47.927c3.189-3.172 7.396-4.816 11.62-4.816 4.208 0 8.415 1.644 11.62 4.816l82.919 82.902c6.394 6.426 6.394 16.797 0 23.24zM532.783 466.498h-213.665c-9.105 0-16.436-7.347-16.436-16.436s7.33-16.436 16.436-16.436h213.665c9.089 0 16.436 7.347 16.436 16.436s-7.396 16.436-16.436 16.436zM271.257 356.264l-71.299-71.282-36.307 36.307c-6.443 6.459-16.814 6.459-23.24 0-6.443-6.459-6.443-16.781 0-23.24l47.927-47.927c3.189-3.172 7.396-4.816 11.62-4.816 4.208 0 8.415 1.644 11.62 4.816l82.919 82.902c6.426 6.443 6.426 16.797 0 23.24-6.443 6.426-16.847 6.426-23.24 0zM532.783 302.14h-213.665c-9.105 0-16.436-7.347-16.436-16.436s7.33-16.436 16.436-16.436h213.665c9.089 0 16.436 7.347 16.436 16.436s-7.396 16.436-16.436 16.436zM844.685 537.698c-6.476 6.426-16.781 6.426-23.24 0-2.909-2.893-4.323-6.624-4.586-10.404l-32.674-32.691-11.817 11.324c-6.509 6.262-16.945 6.048-23.207-0.477-6.328-6.558-6.065-16.962 0.444-23.24l11.308-10.848-169.355-169.371c-2.12-0.016-4.24-0.296-6.229-1.134-6.131-2.564-10.075-8.563-10.075-15.154v-173.266c0-9.122 7.347-16.436 16.436-16.436h176.685c1.956 0 3.78 0.411 5.621 1.052 0.51 0.214 0.97 0.427 1.479 0.707 1.348 0.674 2.564 1.496 3.731 2.416 0.279 0.279 0.608 0.345 0.855 0.575l179.808 179.808 13.543-12.968c3.172-3.090 7.248-4.536 11.357-4.536 4.339 0 8.596 1.709 11.883 5.095 6.295 6.525 6.065 16.929-0.444 23.207l-13.099 12.557 36.077 36.044c6.426 6.459 6.426 16.814 0 23.24l-174.499 174.499zM879.792 357.365l-164.325-170.045-43.489 42.667 168.812 164.753 39.002-37.375zM648.508 252.981l-30.012 29.437 166.15 166.166 32.428-31.080-168.566-164.522zM656.824 128.874l-47.352 42.388c-0.378 0.345-0.97 0.46-1.381 0.805v74.504l120.031-117.697h-71.299zM768.242 135.564l-29.305 28.713 164.621 170.324 32.543-31.162-167.859-167.875zM855.336 426.412c-0.674 1.134-1.183 2.4-2.186 3.369-1.381 1.413-2.991 2.4-4.618 3.139l-40.613 38.936 28.089 28.072 148.267-148.3-24.966-24.95-103.973 99.732z" />
<glyph unicode="&#xe909;" glyph-name="Operator" d="M719.785 685.351c0 13.023 10.555 23.577 23.577 23.577h26.202c13.023 0 23.577-10.555 23.577-23.577s-10.555-23.577-23.577-23.577h-26.202c-13.023 0-23.577 10.557-23.577 23.577zM677.095 685.351c0 13.023-10.555 23.577-23.577 23.577h-26.2c-13.023 0-23.577-10.555-23.577-23.577s10.555-23.577 23.577-23.577h26.2c13.023 0 23.577 10.557 23.577 23.577zM615.817 835.13c24.615 15.053 52.973 23.009 81.999 23.009 4.215 0 8.394-0.165 12.527-0.493-21.851-33.917-53.615-58.435-89.376-68.437-12.538-3.508-19.86-16.517-16.352-29.058 3.51-12.54 16.512-19.873 29.058-16.352 51.757 14.476 96.766 51.527 124.619 102.26 56.866-23.753 96.934-79.953 96.934-145.33 0-67.4-42.387-126.476-104.79-148.474-7.419 6.261-17.002 9.971-27.449 9.971h-50.343c-23.501 0-42.622-18.414-42.622-41.913 0-23.501 19.121-41.918 42.622-41.918h50.343c19.061 0 35.243 11.946 40.671 29.241 60.756 20.546 107.853 67.617 128.14 126.518 27.381 6.649 45.247 23.297 45.247 44.205v52.258c0 21.696-19.189 39.144-48.378 45.229-30.006 75.741-104.277 129.45-190.567 129.45-37.713 0-74.716-10.35-106.742-29.938-11.108-6.793-14.681-21.306-7.885-32.414 6.793-11.11 21.227-14.605 32.345-7.815zM140.164 632.349c6.827-1.126 13.444 0.796 18.733 5.276 5.284 4.48 7.959 11.058 7.959 17.984v45.122c0 86.796 70.944 157.41 157.74 157.41 4.215 0 8.566-0.165 12.7-0.493-21.854-33.92-53.533-58.435-89.292-68.437-12.538-3.508-19.818-16.517-16.31-29.055 3.51-12.54 16.554-19.876 29.076-16.355 51.755 14.474 96.772 51.524 124.629 102.26 56.866-23.753 96.934-79.953 96.934-145.33 0-67.4-42.381-126.479-104.783-148.474-7.419 6.261-16.997 9.971-27.447 9.971h-50.343c-23.501 0-42.62-18.414-42.62-41.913 0-23.501 19.119-41.918 42.62-41.918h50.343c19.061 0 35.24 11.946 40.671 29.241 60.761 20.541 106.981 67.609 127.267 126.518 27.386 6.646 44.388 23.294 44.388 44.205v52.255c0 21.696-18.325 39.146-47.519 45.229-30.006 75.743-103.84 129.45-190.132 129.45-86.4 0-160.312-53.853-190.242-129.746-28.395-6.34-46.272-23.58-46.272-44.93v-52.258c0-22.713 20.321-40.773 51.899-46.012zM304.212 685.351c0 13.023-10.555 23.577-23.577 23.577h-26.2c-13.023 0-23.577-10.555-23.577-23.577s10.555-23.577 23.577-23.577h26.2c13.023 0 23.577 10.557 23.577 23.577zM650.308 20.006l-69.231 284.617c-15.488 63.748-90.427 113.522-170.597 113.522h-3.241c-10.073 0-19.032-6.235-22.301-15.763-5.551-16.171-27.729-32.461-59.381-32.461-31.646 0-53.822 16.25-59.373 32.421-3.269 9.528-12.229 15.802-22.301 15.802h-3.243c-80.165 0-155.097-49.774-170.592-113.519l-69.239-284.706c-0.304-1.14-0.527-2.269-0.66-3.466-0.338-2.986-0.094-5.915 0.655-8.697 0.634-2.376 1.632-4.598 2.929-6.617 2.785-4.343 6.989-7.78 12.153-9.554 0-0.003 0 0 0 0 0.013-0.003 0.024-0.005 0.037-0.008 0.815-0.28 1.648-0.1 2.499-0.288 1.978-0.445 3.937-0.149 5.886-0.149h141.521c13.023 0 23.577 10.555 23.577 23.577s-10.555 23.577-23.577 23.577h-112.249l62.283 255.777c9.567 39.356 60.135 72.799 113.58 77.011 18.21-28.948 55.194-48.124 96.111-48.124s77.907 19.019 96.117 47.967c53.45-4.212 104.020-37.472 113.582-76.828l62.281-255.803h-112.251c-13.023 0-23.577-10.555-23.577-23.577s10.555-23.577 23.577-23.577h141.521c0.233 0 0.469-0.427 0.707-0.427 1.734 0 3.5-0.013 5.263 0.388 0.799 0.181 1.58 0.299 2.345 0.558 5.208 1.763 9.452 5.169 12.258 9.538 1.299 2.020 2.3 4.231 2.934 6.609 0.747 2.779 0.993 5.711 0.655 8.69-0.126 1.2-0.348 2.363-0.658 3.51zM1023.851 16.477c-0.131 1.205-0.354 2.381-0.663 3.529l-69.231 284.617c-15.493 63.748-90.429 113.522-170.597 113.522h-3.241c-10.073 0-19.032-6.235-22.301-15.763-5.551-16.171-27.732-32.461-59.383-32.461-31.646 0-53.822 16.41-59.373 32.581-4.228 12.318-17.649 18.888-29.956 14.668-12.315-4.228-18.872-17.631-14.647-29.946 13.015-37.912 55.768-64.382 103.973-64.382 40.92 0 77.91 19.074 96.119 48.022 53.45-4.212 104.018-37.443 113.582-76.802l62.281-255.774h-112.249c-13.023 0-23.577-10.555-23.577-23.577s10.555-23.577 23.577-23.577h141.519c0.233 0 0.469-0.427 0.707-0.427 1.734 0 3.5-0.016 5.263 0.388 0.799 0.181 1.58 0.299 2.345 0.558 5.208 1.763 9.452 5.169 12.258 9.538 1.299 2.020 2.3 4.231 2.934 6.609 0.754 2.777 0.998 5.698 0.66 8.676zM370.483 661.774h26.194c13.023 0 23.577 10.555 23.577 23.577s-10.555 23.577-23.577 23.577h-26.194c-13.023 0-23.577-10.555-23.577-23.577s10.555-23.577 23.577-23.577z" />
<glyph unicode="&#xe90a;" glyph-name="questions" d="M783.459 694.485c0-31.022-22.584-49.888-39.076-63.733-6.246-5.244-17.871-14.813-17.84-18.387 0.113-14.020-11.16-25.216-25.183-25.216-0.071 0-0.141 0-0.212 0-13.924 0-25.27 10.852-25.383 24.802-0.223 27.496 19.842 43.961 35.967 57.499 12.652 10.624 20.948 18.099 20.948 24.94 0 13.848-11.267 25.115-25.115 25.115-13.854 0-25.123-11.267-25.123-25.115 0-14.023-11.366-25.388-25.388-25.388s-25.388 11.366-25.388 25.388c0 41.846 34.046 75.892 75.894 75.892 41.851 0.003 75.897-33.947 75.897-75.796zM701.852 563.712c-14.023 0-24.827-11.366-24.827-25.388v-0.195c0-14.023 10.807-25.293 24.827-25.293s25.388 11.464 25.388 25.487-11.366 25.388-25.388 25.388zM190.109 386.859c-14.023 0-25.388-11.366-25.388-25.388s11.366-25.388 25.388-25.388h2.116c14.023 0 25.388 11.366 25.388 25.388s-11.366 25.388-25.388 25.388h-2.116zM278.345 386.859c-14.023 0-25.388-11.366-25.388-25.388s11.366-25.388 25.388-25.388h2.113c14.023 0 25.388 11.366 25.388 25.388s-11.366 25.388-25.388 25.388h-2.113zM1024 792.366v-285.764c0-67.66-54.252-122.564-121.912-122.564h-329.251c-6.437 0-11.738 0.037-16.172 0.13-4.646 0.096-9.876 0.133-11.916-0.093-2.124-1.41-7.332-6.181-12.35-10.804-1.989-1.831-4.24-3.845-6.669-6.062l-93.153-84.905c-7.43-6.779-18.424-8.533-27.625-4.477-9.202 4.059-15.662 13.171-15.662 23.228v269.165h-265.958c-39.668 0-72.554-32.506-72.554-72.168v-285.764c0-39.665 32.889-70.851 72.554-70.851h367.777c6.333 0 12.257-2.908 16.934-7.179l75.892-69.971v241.3c0 14.023 11.366 25.388 25.388 25.388s25.388-11.366 25.388-25.388v-298.844c0-10.057-5.755-19.033-14.959-23.092-3.292-1.453-6.598-2.025-10.059-2.025-6.217 0-12.35 2.553-17.12 6.908l-111.306 102.129h-357.935c-67.663 0-123.331 53.965-123.331 121.628v285.761c0 67.66 55.668 122.945 123.331 122.945h265.958v171.369c0 67.663 56.094 122.008 123.757 122.008h389.044c67.657 0 121.91-54.345 121.91-122.008zM973.223 792.366c0 39.665-31.473 71.231-71.136 71.231h-389.041c-39.665 0-72.98-31.566-72.98-71.231v-433.767l51.045 46.131c2.364 2.158 5.013 4.133 6.945 5.916 23.309 21.479 29.273 24.912 59.677 24.285 4.147-0.087 9.086-0.118 15.103-0.118h329.251c39.662 0 71.136 32.125 71.136 71.787v285.767z" />
<glyph unicode="&#xe90b;" glyph-name="Search" d="M358.468 347.491c-67.682 0-130.683 26.304-177.363 74.177-96.428 98.873-92.271 259.916 9.303 358.942 49.279 48.033 113.788 74.49 181.729 74.49 67.682 0 130.683-26.354 177.363-74.177 96.428-98.87 92.218-259.913-9.306-358.939-49.276-48.033-113.838-74.493-181.726-74.493zM372.137 807.12c-55.309 0-107.967-21.626-148.202-60.871-82.547-80.573-86.344-211.153-8.422-291.048 75.53-77.4 211.153-76.882 291.154 1.196 82.6 80.573 86.394 211.099 8.422 291.048-37.478 38.464-88.265 59.675-142.952 59.675zM888.999-64v0c-34.152 0-66.017 13.36-89.723 37.687l-197.846 202.836c-21.782 22.353-34.258 52.502-35.088 84.108l-29.786 30.514c-55.465-31.71-117.741-48.345-181.47-48.345-95.544 0-184.433 37.168-250.191 104.588-136.191 139.626-130.214 367.152 13.413 507.191 69.709 67.941 160.94 105.422 257.002 105.422 95.594 0 184.536-37.218 250.398-104.691 112.177-114.984 129.749-293.596 45.485-432.91l30.045-30.773c33.839-2.286 61.808-15.18 82.912-36.906l197.846-202.783c23.287-23.859 35.869-55.465 35.451-88.992-0.415-33.53-13.775-64.874-37.687-88.162-26.822-26.204-57.854-38.783-90.76-38.783zM543.576 347.597c2.027 0 4.107-0.259 6.133-0.781 6.602-1.768 12.111-6.236 15.23-12.267 2.286-4.522 4.003-7.901 5.771-9.668l36.959-37.896c4.731-4.834 7.173-11.489 6.811-18.247-1.352-22.3 6.186-43.199 21.314-58.688l197.846-202.836c28.59-29.371 79.792-29.942 109.216-1.352 18.038 17.569 26.251 36.906 26.51 57.595s-7.486 40.235-21.832 54.894l-197.846 202.783c-14.346 14.712-33.945 22.819-55.153 22.819-6.499 0-16.529 2.548-21.054 7.173l-36.959 37.896c-1.768 1.768-4.99 3.588-8.732 5.615-5.977 3.276-10.708 9.2-12.267 15.802s-0.675 13.828 3.276 19.44c85.563 122.991 74.024 287.775-27.5 391.842-56.711 58.17-133.44 90.241-215.987 90.241-83.431 0-162.757-32.593-223.472-91.8-124.605-121.53-130.27-318.595-12.532-439.297 56.661-58.117 133.284-90.085 215.778-90.085 62.223 0 122.835 18.247 175.233 52.867 4.003 2.598 8.631 3.95 13.257 3.95z" />
<glyph unicode="&#xe90c;" glyph-name="Settings" d="M597.323 347.968c13.939 23.379 24.315 48.347 30.967 74.507h27.594c28.761 0 52.16 23.399 52.16 52.16v35.513c0 28.761-23.399 52.16-52.16 52.16h-27.594c-6.652 26.16-17.029 51.128-30.967 74.507l19.588 19.588c20.336 20.336 20.336 53.427-0.002 73.765l-25.11 25.11c-9.85 9.85-22.95 15.277-36.883 15.277s-27.032-5.427-36.883-15.277l-19.586-19.588c-23.379 13.939-48.347 24.318-74.507 30.967v27.596c0 28.761-23.399 52.16-52.16 52.16h-35.513c-28.761 0-52.16-23.399-52.16-52.16v-27.594c-26.16-6.652-51.128-17.029-74.504-30.967l-19.588 19.588c-9.85 9.85-22.95 15.277-36.883 15.277s-27.032-5.427-36.883-15.277l-25.114-25.112c-20.336-20.338-20.336-53.43 0-73.765l19.588-19.588c-13.939-23.379-24.315-48.347-30.967-74.507h-27.596c-28.761 0-52.16-23.399-52.16-52.16v-35.513c0-28.761 23.399-52.16 52.16-52.16h27.596c6.652-26.16 17.029-51.128 30.967-74.507l-19.588-19.588c-20.336-20.338-20.336-53.427 0-73.765l25.11-25.112c20.34-20.338 53.427-20.336 73.768 0l19.586 19.586c23.377-13.939 48.345-24.315 74.504-30.967v-27.594c0-28.761 23.399-52.16 52.16-52.16h35.513c28.761 0 52.16 23.399 52.16 52.16v27.594c26.16 6.652 51.128 17.029 74.507 30.967l19.586-19.588c20.338-20.338 53.43-20.34 73.763 0l25.114 25.112c20.336 20.338 20.336 53.427 0 73.765l-19.583 19.59zM593.37 278.158l-25.114-25.112c-7.353-7.353-19.326-7.353-26.679 0l-28.974 28.974c-5.6 5.596-14.363 6.479-20.962 2.109-26.919-17.825-56.41-30.080-87.66-36.423-7.757-1.574-13.335-8.397-13.335-16.314v-40.862c0-10.403-8.463-18.866-18.866-18.866h-35.513c-10.403 0-18.866 8.463-18.866 18.866v40.862c0 7.917-5.578 14.74-13.335 16.314-31.249 6.344-60.741 18.598-87.658 36.423-2.808 1.86-6.004 2.768-9.185 2.768-4.299 0-8.561-1.66-11.779-4.876l-28.972-28.972c-7.36-7.356-19.33-7.356-26.681 0l-25.11 25.112c-7.356 7.356-7.356 19.326 0 26.681l28.974 28.974c5.596 5.598 6.479 14.363 2.106 20.962-17.823 26.917-30.080 56.41-36.423 87.658-1.574 7.76-8.394 13.335-16.314 13.335h-40.862c-10.403 0-18.866 8.463-18.866 18.866v35.513c0 10.403 8.463 18.866 18.866 18.866h40.862c7.917 0 14.74 5.576 16.314 13.335 6.344 31.249 18.6 60.741 36.423 87.66 4.373 6.599 3.489 15.364-2.106 20.962l-28.974 28.974c-7.356 7.356-7.356 19.326 0 26.681l25.11 25.11c3.562 3.562 8.299 5.527 13.34 5.527s9.777-1.962 13.342-5.527l28.974-28.974c5.598-5.596 14.367-6.481 20.962-2.109 26.917 17.823 56.408 30.077 87.658 36.423 7.757 1.574 13.335 8.397 13.335 16.314v40.862c0 10.403 8.463 18.866 18.866 18.866h35.513c10.403 0 18.866-8.463 18.866-18.866v-40.862c0-7.917 5.578-14.74 13.335-16.314 31.249-6.344 60.741-18.598 87.66-36.423 6.601-4.37 15.366-3.487 20.962 2.109l28.974 28.972c3.562 3.562 8.299 5.527 13.34 5.527s9.775-1.962 13.342-5.527l25.11-25.11c7.356-7.356 7.356-19.326 0-26.681l-28.974-28.974c-5.596-5.598-6.479-14.363-2.106-20.962 17.823-26.919 30.080-56.413 36.421-87.66 1.576-7.76 8.397-13.335 16.316-13.335h40.86c10.403 0 18.866-8.463 18.866-18.866v-35.513c0-10.403-8.463-18.866-18.866-18.866h-40.86c-7.917 0-14.74-5.576-16.316-13.335-6.341-31.249-18.598-60.741-36.421-87.658-4.373-6.601-3.489-15.364 2.106-20.962l28.974-28.974c7.356-7.356 7.356-19.326 0.002-26.681zM402.682 664.366c11.211-3.165 22.162-7.464 32.554-12.776 2.426-1.241 5.014-1.829 7.564-1.829 6.053 0 11.89 3.314 14.836 9.071 4.186 8.186 0.943 18.216-7.245 22.4-12.341 6.308-25.348 11.415-38.663 15.173-8.849 2.497-18.043-2.648-20.544-11.497-2.499-8.845 2.65-18.043 11.497-20.542zM158.913 511.526c1.017-0.186 2.026-0.277 3.025-0.277 7.877 0 14.88 5.618 16.354 13.641 2.661 14.492 7.131 28.628 13.282 42.021 3.84 8.354 0.18 18.238-8.175 22.076-8.352 3.838-18.24 0.178-22.076-8.175-7.309-15.905-12.618-32.697-15.779-49.907-1.66-9.043 4.324-17.719 13.368-19.379zM321.505 316.666c-72.367 13.297-129.918 70.853-143.209 143.22-1.662 9.043-10.352 15.029-19.379 13.364-9.043-1.66-15.029-10.337-13.366-19.379 15.772-85.873 84.066-154.172 169.939-169.95 1.017-0.186 2.029-0.277 3.027-0.277 7.877 0 14.878 5.616 16.354 13.641 1.658 9.043-4.324 17.719-13.366 19.381zM508.142 637.92c-6.317 6.685-16.853 6.985-23.534 0.67-6.683-6.312-6.983-16.849-0.67-23.532 31.442-33.289 48.76-76.853 48.76-122.667 0-16.562-2.264-32.963-6.723-48.744-2.501-8.847 2.641-18.047 11.491-20.549 1.514-0.428 3.036-0.633 4.537-0.633 7.26 0 13.937 4.79 16.010 12.121 5.296 18.729 7.982 38.177 7.982 57.802-0.002 54.353-20.547 106.036-57.851 145.531zM997.929 226.824l-8.683 5.012c1.929 9.93 2.903 19.883 2.903 29.72s-0.972 19.792-2.903 29.72l8.683 5.012c24.908 14.381 33.471 46.345 19.093 71.253-14.383 24.908-46.345 33.476-71.253 19.091l-8.652-4.994c-15.113 13.029-32.59 23.095-51.507 29.662v10.066c0 28.761-23.399 52.16-52.16 52.16s-52.16-23.399-52.16-52.16v-10.066c-18.917-6.568-36.394-16.633-51.507-29.662l-8.65 4.994c-12.066 6.967-26.122 8.818-39.579 5.212s-24.708-12.237-31.673-24.302c-14.381-24.908-5.815-56.87 19.093-71.253l8.681-5.012c-1.929-9.935-2.903-19.885-2.903-29.72s0.972-19.787 2.903-29.72l-8.681-5.012c-24.908-14.381-33.471-46.342-19.093-71.253 14.381-24.91 46.345-33.469 71.253-19.093l8.65 4.994c15.113-13.029 32.59-23.092 51.507-29.662v-10.066c0-28.761 23.399-52.16 52.16-52.16s52.16 23.399 52.16 52.16v10.066c18.917 6.568 36.394 16.633 51.507 29.662l8.652-4.994c24.904-14.378 56.87-5.815 71.253 19.093 14.381 24.91 5.815 56.872-19.093 71.253zM988.189 172.22c-5.205-9.009-16.767-12.103-25.771-6.907l-19.335 11.162c-6.572 3.795-14.882 2.661-20.2-2.752-15.892-16.181-35.975-27.745-58.077-33.445-7.353-1.896-12.49-8.525-12.49-16.119v-22.413c0-10.403-8.463-18.866-18.866-18.866s-18.866 8.463-18.866 18.866v22.413c0 7.593-5.136 14.223-12.49 16.119-22.103 5.7-42.185 17.264-58.077 33.445-3.216 3.274-7.524 4.983-11.884 4.983-2.848 0-5.718-0.73-8.317-2.231l-19.332-11.162c-9.009-5.205-20.573-2.1-25.771 6.905-5.2 9.011-2.102 20.573 6.905 25.774l19.386 11.193c6.57 3.793 9.746 11.548 7.72 18.86-3.103 11.213-4.679 22.489-4.679 33.513s1.576 22.298 4.679 33.513c2.026 7.311-1.15 15.066-7.72 18.86l-19.386 11.193c-9.009 5.203-12.106 16.764-6.905 25.774 2.521 4.364 6.588 7.487 11.455 8.79 4.865 1.305 9.95 0.637 14.316-1.884l19.332-11.162c6.577-3.798 14.882-2.661 20.2 2.752 15.892 16.181 35.975 27.745 58.077 33.445 7.353 1.896 12.49 8.525 12.49 16.119v22.413c0 10.403 8.463 18.866 18.866 18.866s18.866-8.463 18.866-18.866v-22.413c0-7.593 5.136-14.223 12.49-16.119 22.103-5.7 42.185-17.264 58.077-33.445 5.318-5.414 13.626-6.55 20.2-2.752l19.335 11.162c9.007 5.2 20.569 2.104 25.771-6.905 5.2-9.009 2.102-20.571-6.905-25.771l-19.388-11.193c-6.57-3.793-9.746-11.551-7.72-18.862 3.105-11.204 4.679-22.48 4.679-33.511s-1.574-22.304-4.679-33.511c-2.026-7.311 1.15-15.069 7.72-18.862l19.388-11.193c9.007-5.205 12.106-16.767 6.905-25.774zM833.45 331.472c-38.552 0-69.917-31.365-69.917-69.917s31.365-69.917 69.917-69.917 69.917 31.365 69.917 69.917-31.365 69.917-69.917 69.917zM833.45 224.933c-20.194 0-36.623 16.429-36.623 36.623s16.429 36.623 36.623 36.623 36.623-16.429 36.623-36.623-16.429-36.623-36.623-36.623zM354.022 633.334c-77.716 0-140.943-63.227-140.943-140.943s63.227-140.943 140.943-140.943 140.943 63.227 140.943 140.943-63.227 140.943-140.943 140.943zM354.022 384.742c-59.358 0-107.649 48.291-107.649 107.649s48.291 107.649 107.649 107.649 107.649-48.291 107.649-107.649-48.291-107.649-107.649-107.649z" />
<glyph unicode="&#xe90d;" glyph-name="stack-of-books-and-magnifier" d="M620.173 69.191c-42.464 0-83.344 10.123-119.899 29.196h-253.433c-23.25 0-42.165 18.922-42.165 42.165v130.249c0 23.25 18.917 42.162 42.165 42.162h114.53c-0.299 5.136-0.47 10.312-0.47 15.496 0 19.46 2.123 38.592 6.26 57.124h-237.051v70.981h234.369c20.052 0 36.31 16.256 36.31 36.308s-16.26 36.308-36.31 36.308h-234.369v70.981h542.946c18.841 0 34.835-12.427 40.222-29.51 26.989-10.339 52.149-25.237 74.566-44.274v31.621c0 14.884-2.878 29.102-8.058 42.162h92.786c20.050 0 36.308 16.26 36.308 36.313s-16.258 36.308-36.308 36.308h-10.155v214.588h10.155c20.050 0 36.308 16.26 36.308 36.313s-16.258 36.315-36.308 36.315h-625.731c-63.292 0-114.783-51.493-114.783-114.785v-130.249c0-14.888 2.878-29.107 8.058-42.167h-92.783c-20.052 0-36.31-16.256-36.31-36.308s16.26-36.313 36.31-36.313h10.157v-214.581h-10.157c-20.052 0-36.31-16.258-36.31-36.308s16.26-36.308 36.31-36.308h92.783c-5.18-13.065-8.058-27.286-8.058-42.16v-130.247c0-63.297 51.491-114.79 114.783-114.79h519.1l-58.471 58.476c-28.009-10.008-57.304-15.068-87.297-15.068zM204.677 845.215c0 23.248 18.917 42.162 42.165 42.162h542.951v-70.977h-234.373c-20.050 0-36.308-16.26-36.308-36.313s16.258-36.308 36.308-36.308h234.373v-70.981h-542.951c-23.25 0-42.165 18.917-42.165 42.167v130.249zM995.487 38.059l-181.954 181.952c49.044 86.213 36.858 198.063-36.596 271.515-88.089 88.087-231.41 88.087-319.488 0-88.084-88.082-88.087-231.413 0-319.488 73.449-73.454 185.299-85.64 271.517-36.596l181.954-181.95c23.319-23.319 61.255-23.319 84.569 0 23.317 23.307 23.317 61.243-0.002 84.567zM731.941 217.032c-63.267-63.271-166.223-63.271-229.502 0-63.267 63.267-63.267 166.221 0 229.497 63.274 63.269 166.226 63.269 229.502 0 63.269-63.276 63.269-166.226 0-229.497z" />
<glyph unicode="&#xe90e;" glyph-name="technology-call" d="M689.818 890.273c-8.257 9.706-7.081 24.267 2.625 32.524l37.275 31.706c9.706 8.252 24.267 7.081 32.524-2.625 8.255-9.706 7.081-24.267-2.625-32.524l-37.275-31.706c-4.34-3.692-9.654-5.499-14.938-5.499-6.532 0-13.023 2.758-17.586 8.124zM756.918 792.651c-12.749 0.010-23.139-10.175-23.226-22.916s10.175-23.221 22.916-23.308l48.936-0.41c0.054 0 0.105 0 0.159 0 12.669 0 22.983 10.308 23.070 22.998 0.085 12.741-10.175 23.183-22.916 23.267l-48.939 0.369zM727.662 835.792c3.41-9.37 12.257-15.187 21.683-15.187 2.62 0 5.286 0.449 7.891 1.397l81.076 29.509c11.975 4.358 18.148 17.596 13.79 29.571-4.358 11.977-17.604 18.148-29.571 13.79l-81.076-29.509c-11.977-4.356-18.153-17.596-13.792-29.571zM562.128 105.579c-2.384-12.351-8.093-26.769-16.079-40.6-22.134-38.346-48.965-55.117-70.378-44.183l-33.86 15.13c-12.962-9.79-26.972-17.886-41.881-24.195l-3.817-36.759c-1.136-24.085-29.063-38.969-73.46-38.969-44.283 0-72.227 14.851-73.457 38.872l-3.827 36.854c-14.907 6.309-28.917 14.405-41.879 24.198l-33.765-15.087c-21.421-11.054-48.278 5.694-70.473 44.137-22.155 38.372-23.254 70.006-3.040 83.071l29.866 21.637c-1 8.106-1.505 16.292-1.505 24.477 0 8.057 0.49 16.117 1.459 24.098l-29.871 21.639c-20.16 13.087-19.042 44.699 3.092 83.035 22.196 38.446 49.052 55.189 70.476 44.137l33.419-14.933c13.069 9.919 27.21 18.107 42.271 24.475l3.779 36.449c1.248 24.005 29.186 38.849 73.457 38.849 44.394 0 72.319-14.887 73.46-38.967l3.774-36.329c15.059-6.368 29.199-14.553 42.268-24.472l33.498 14.966c21.419 10.952 48.26-5.817 70.401-44.178 7.983-13.825 13.695-28.246 16.076-40.594 4.978-25.797-5.419-37.5-13.044-42.466l-29.815-21.603c0.969-7.986 1.459-16.048 1.459-24.105 0-8.186-0.505-16.376-1.505-24.485l29.866-21.639c7.619-4.961 18.014-16.663 13.036-42.458zM480.719 247.325l36.134 26.182c-1.056 5.401-4.135 14.879-10.765 26.361-6.632 11.49-13.302 18.896-17.453 22.511l-40.659-18.168c-8.265-3.694-17.922-2.215-24.7 3.784-15.353 13.584-32.922 23.757-52.218 30.235-8.57 2.879-14.671 10.495-15.605 19.488l-4.589 44.196c-5.207 1.787-14.953 3.858-28.215 3.858-13.267 0-23.016-2.074-28.223-3.861l-4.581-44.191c-0.933-8.993-7.032-16.612-15.602-19.494-19.299-6.481-36.87-16.656-52.223-30.238-6.778-5.999-16.438-7.475-24.7-3.784l-40.659 18.166c-4.15-3.615-10.818-11.021-17.448-22.508-6.635-11.487-9.713-20.968-10.767-26.369l36.134-26.177c7.306-5.294 10.857-14.361 9.088-23.208-1.959-9.79-2.951-19.868-2.951-29.945 0-10.185 1.015-20.368 3.012-30.263 1.789-8.86-1.759-17.948-9.080-23.252l-36.203-26.231c1.056-5.401 4.135-14.882 10.767-26.372 6.629-11.485 13.3-18.891 17.448-22.506l40.971 18.307c8.245 3.684 17.881 2.22 24.659-3.748 15.284-13.459 32.75-23.547 51.913-29.989 8.568-2.881 14.664-10.498 15.597-19.488l4.627-44.619c5.207-1.787 14.953-3.861 28.223-3.861 13.261 0 23.008 2.074 28.212 3.858l4.635 44.624c0.933 8.991 7.029 16.607 15.597 19.488 19.168 6.445 36.631 16.533 51.91 29.989 6.781 5.971 16.417 7.432 24.662 3.748l40.966-18.309c4.15 3.615 10.821 11.018 17.453 22.508 6.632 11.485 9.711 20.965 10.767 26.367l-36.203 26.228c-7.319 5.302-10.867 14.389-9.080 23.249 2 9.903 3.012 20.086 3.012 30.271 0 10.075-0.992 20.152-2.951 29.953-1.769 8.85 1.782 17.914 9.085 23.208zM410.436 194.189c0-48.406-39.379-87.785-87.785-87.785s-87.788 39.379-87.788 87.785c0 48.403 39.382 87.785 87.788 87.785 48.406-0.003 87.785-39.382 87.785-87.785zM364.291 194.189c0 22.96-18.681 41.64-41.64 41.64-22.962 0-41.643-18.681-41.643-41.64 0-22.962 18.681-41.64 41.643-41.64 22.96-0.003 41.64 18.678 41.64 41.64zM939.079 53.966l-74.065 202.303c-0.361 0.982-0.782 1.925-1.256 2.828-7.206 16.535-22.483 28.002-40.507 30.199-11.241 1.392-22.28 2.005-32.958 2.594-5.24 0.29-10.485 0.579-15.746 0.964-18.048 1.32-33.639 3.733-47.67 7.375-28.922 7.506-47.901 18.232-61.542 34.775-24.387 29.574-62.862 134.66-63.333 172.991-0.267 21.444 7.304 41.889 24.539 66.289 8.591 12.164 18.348 23.393 31.64 36.413 3.725 3.648 7.522 7.229 11.313 10.808 6.919 6.532 14.066 13.279 20.947 20.542 15.148 14.056 20.334 35.516 13.197 54.997l-74.062 202.308c-9.688 26.451-39.092 40.087-65.543 30.407l-51.203-18.74c-13.751-5.007-20.652-7.519-36.567-17.22-92.292-56.317-142.897-165.582-142.492-307.669 0.074-25.469 1.807-51.997 5.148-78.846 1.574-12.646 13.1-21.621 25.744-20.047 12.646 1.574 21.621 13.1 20.047 25.744-3.112 25.010-4.725 49.667-4.794 73.283-0.359 125.329 42.394 220.558 120.373 268.141 11.987 7.306 15.448 8.568 28.325 13.254l51.282 18.768c2.561 0.938 5.412-0.382 6.347-2.94l74.062-202.311c0.854-2.335-0.2-4.368-1.361-5.399-0.515-0.459-1.013-0.941-1.484-1.443-6.135-6.519-12.697-12.713-19.645-19.273-3.997-3.774-7.993-7.547-11.923-11.395-15.153-14.843-26.925-28.43-37.046-42.761-22.893-32.411-33.375-62.116-32.988-93.479 0.605-48.97 42.72-164.003 73.872-201.778 19.95-24.198 47.134-40.112 85.544-50.085 16.758-4.353 35.044-7.211 55.902-8.734 5.527-0.405 11.047-0.713 16.561-1.018 10.365-0.574 20.155-1.115 29.884-2.32 2.161-0.264 3.463-1.802 3.958-3.153 0.264-0.718 0.559-1.413 0.884-2.087l73.278-200.155c0.938-2.561-0.385-5.407-2.946-6.345l-46.57-17.050c-17.955-6.576-23.375-8.56-41.638-10.821-62.852-7.775-125.48 11.769-186.132 58.111-10.124 7.734-24.603 5.801-32.342-4.325-7.737-10.126-5.801-24.605 4.325-32.342 59.685-45.606 124.091-69.199 188.029-69.199 10.618 0 21.221 0.649 31.789 1.959 22.601 2.797 31.681 5.904 51.836 13.285l46.573 17.050c26.454 9.693 40.097 39.095 30.414 65.546z" />
<glyph unicode="&#xe90f;" glyph-name="tool" d="M409.917 301.229c8.509-14.735 18.768-27.678 28.888-36.454 21.144-18.334 37.473-14.978 46.113-10.592l35.665 15.936c13.921-10.565 28.983-19.284 45.026-26.070l4.028-38.825c1.33-25.57 31.089-41.381 78.245-41.381 47.287 0 77.035 15.857 78.25 41.506l4.017 38.696c16.043 6.783 31.102 15.505 45.021 26.067l35.695-15.953c22.815-11.644 51.394 6.218 74.976 47.063 8.503 14.732 14.587 30.089 17.124 43.243 5.303 27.476-5.767 39.941-13.883 45.231l-31.769 23.017c1.032 8.503 1.554 17.091 1.554 25.676 0 8.724-0.538 17.449-1.603 26.081l31.752 23.003c21.608 13.877 20.466 47.568-3.178 88.523-23.598 40.87-52.197 58.731-75.014 47.044l-36.020-16.097c-13.809 10.431-28.729 19.052-44.611 25.772l-4.063 39.158c-1.215 25.652-30.96 41.509-78.25 41.509-47.159 0-76.917-15.813-78.245-41.386l-4.077-39.281c-15.882-6.72-30.802-15.341-44.608-25.772l-35.96 16.067c-22.823 11.769-51.421-6.059-75.074-47.014-23.577-40.845-24.756-74.525-3.271-88.457l31.848-23.074c-1.065-8.634-1.603-17.356-1.603-26.072 0-8.58 0.522-17.168 1.556-25.671l-31.812-23.044c-21.477-13.935-20.292-47.606 3.285-88.449zM489.188 406.502c-2.089 10.437-3.146 21.165-3.146 31.894 0 10.846 1.081 21.69 3.209 32.236 1.906 9.437-1.873 19.117-9.672 24.767l-38.562 27.94c1.125 5.754 4.402 15.852 11.463 28.088 7.064 12.233 14.169 20.122 18.59 23.973l43.644-19.497c8.782-3.921 19.046-2.359 26.266 3.995 16.272 14.333 34.876 25.078 55.291 31.941 9.126 3.069 15.619 11.182 16.613 20.759l4.934 47.53c5.543 1.903 15.928 4.112 30.062 4.112 14.126 0 24.508-2.209 30.054-4.11l4.932-47.53c0.994-9.576 7.487-17.692 16.613-20.759 20.414-6.862 39.018-17.61 55.296-31.941 7.22-6.36 17.482-7.916 26.269-3.992l43.639 19.5c4.421-3.85 11.523-11.736 18.59-23.975 7.064-12.233 10.344-22.331 11.469-28.085l-38.562-27.935c-7.796-5.65-11.578-15.333-9.672-24.773 2.13-10.532 3.209-21.381 3.209-32.238 0-10.734-1.057-21.471-3.143-31.908-1.881-9.424 1.901-19.079 9.68-24.715l38.486-27.883c-1.125-5.756-4.405-15.852-11.469-28.088s-14.169-20.125-18.59-23.975l-43.308 19.352c-8.804 3.932-19.093 2.354-26.313-4.033-16.349-14.467-35.062-25.302-55.618-32.205-9.131-3.067-15.628-11.182-16.622-20.761l-4.885-47.074c-5.546-1.903-15.928-4.11-30.054-4.11-14.131 0-24.519 2.209-30.062 4.112l-4.882 47.071c-0.994 9.579-7.49 17.695-16.619 20.764-20.559 6.906-39.275 17.741-55.626 32.208-7.223 6.39-17.509 7.968-26.31 4.033l-43.308-19.35c-4.421 3.853-11.523 11.739-18.588 23.973-7.064 12.236-10.344 22.334-11.466 28.088l38.491 27.883c7.78 5.633 11.562 15.294 9.677 24.718zM1000.169 827.707h-292.927v88.525c0 0.169-0.573 0.339-0.573 0.508 0 6.868-3.107 13.618-7.649 18.077-4.547 4.467-11.166 7.578-18.020 7.578h-333.474c-5.057 0-9.852-1.887-13.82-4.448-6.78-4.375-11.384-12.266-11.384-20.936 0-0.21-0.104-0.691-0.104-0.898v-88.403h-297.023c-13.574-0.003-25.196-9.904-25.196-23.476v-731.237c0-13.574 11.622-23.53 25.196-23.53h78.569c13.574 0 24.576 11.002 24.576 24.576s-11.002 24.576-24.576 24.576h-54.613v679.936h925.696v-679.936h-663.552v241.874c0 35.163-21.845 65.053-54.613 75.424v119.398l26.987 15.513c0.025 0.014 0.106 0.027 0.131 0.041l38.704 22.331c0.852 0.47 1.685 0.989 2.469 1.554 0.003 0.003 0.014 0.005 0.019 0.008 2.919 2.094 5.267 4.74 6.969 7.709 1.674 2.908 3.094 6.19 3.454 9.691 0.106 1.008 0.456 2.021 0.456 3.039v89.465c0 0.994-0.344 1.985-0.448 2.966-0.355 3.531-1.619 6.84-3.307 9.77-1.701 2.957-4.115 5.595-7.023 7.684-0.795 0.571-1.66 1.095-2.52 1.573l-33.328 19.232c-11.756 6.788-26.793 2.761-33.582-8.992-6.786-11.756-2.444-26.785 9.309-33.571l21.744-12.373v-62.049l-27.187-15.51c-0.030-0.016-0.221-0.035-0.251-0.052l-26.859-15.461-26.908 15.513c-0.011 0.005-0.601 0.011-0.609 0.016l-27.41 15.491v62.049l21.987 12.373c11.753 6.786 16.059 21.818 9.273 33.571-6.783 11.756-21.676 15.778-33.432 8.992l-33.238-19.232c-0.857-0.475-1.652-0.999-2.444-1.573-2.908-2.089-5.226-4.724-6.925-7.681-1.696-2.938-3.351-6.259-3.7-9.8-0.104-0.969-0.674-1.947-0.674-2.93v-89.487c0-0.983 1.111-1.966 1.21-2.938 0.352-3.547 1.521-6.876 4.252-9.817v-0.003c0-0.003-0.524-0.008-0.522-0.011 1.704-2.957 3.779-5.59 6.693-7.673 0.781-0.56 1.464-1.079 2.307-1.543l38.666-22.361c0.005-0.003-0.139-0.008-0.131-0.011l26.714-15.516v-119.393c-32.768-10.366-54.613-40.261-54.613-75.426v-307.569c0-43.737 35.447-79.32 79.195-79.32 43.737 0 79.184 35.583 79.184 79.32v16.545h688.873c13.574 0 23.831 9.956 23.831 23.53v731.234c0 13.571-10.256 23.473-23.831 23.473zM658.091 827.707h-286.72v65.536h286.72v-65.536zM262.144 32.925c0-16.635-13.399-30.168-30.043-30.168-16.635 0-30.032 13.533-30.032 30.168v307.569c0 16.635 13.397 30.168 30.043 30.168 16.632 0 30.032-13.533 30.032-30.168v-307.569zM647.881 344.865c51.558 0 93.506 41.946 93.506 93.506s-41.946 93.506-93.506 93.506c-51.56 0-93.512-41.946-93.512-93.506s41.949-93.506 93.512-93.506zM647.881 482.726c24.456 0 44.354-19.898 44.354-44.354s-19.898-44.354-44.354-44.354c-24.461 0-44.36 19.898-44.36 44.354s19.898 44.354 44.36 44.354z" />
<glyph unicode="&#xe910;" glyph-name="Workplace" d="M398.779 463.53v34.067h176.344v318.622h-478.935v-318.622h176.344v-34.067h-272.532v-383.75h30.059v353.691h963.883v-353.691h30.059v383.75h-625.221zM201.181 786.16l43.677-43.677 21.254 21.254-22.424 22.424h301.377v-194.38h-106.997l-139.917 139.917-21.254-21.254 118.664-118.664h-269.314v194.38h74.934zM126.247 561.722h418.818v-34.067h-418.818v34.067zM302.591 497.597h66.129v-34.067h-66.129v34.067zM577.127 79.781h30.059v33.065h322.63v-33.065h30.059v319.624h-382.748v-319.624zM607.186 142.904v98.192h322.63v-98.192h-322.63zM929.816 369.346v-98.192h-322.63v98.192h322.63zM736.438 207.029h80.157v-30.059h-80.157v30.059zM736.438 335.28h80.157v-30.059h-80.157v30.059zM736.438 511.624h224.438v-30.059h-224.438v30.059zM736.438 559.718h224.438v-30.059h-224.438v30.059zM736.438 607.812h192.376v-30.059h-192.376v30.059z" />
<glyph unicode="&#xe911;" glyph-name="arrows" d="M832 704v-128l-320-320-320 320v128l320-320z" />
<glyph unicode="&#xe912;" glyph-name="close" d="M1024 857.6l-102.4 102.4-409.6-409.6-409.6 409.6-102.4-102.4 409.6-409.6-409.6-409.6 102.4-102.4 409.6 409.6 409.6-409.6 102.4 102.4-409.6 409.6z" />
<glyph unicode="&#xe913;" glyph-name="filter-outline" d="M1019.98 881.548c-8.148 19.685-27.13 32.376-48.401 32.376h-919.157c-21.271 0-40.253-12.691-48.401-32.376-8.13-19.667-3.677-42.11 11.357-57.162l363.722-364.317v-455.838c0-12.276 9.915-22.155 22.155-22.155 12.258 0 22.155 9.897 22.155 22.155v465.032c0 5.895-2.343 11.537-6.49 15.683l-370.212 370.825c-3.317 3.335-2.524 6.94-1.767 8.779 0.793 1.893 2.758 4.975 7.481 4.975h919.175c4.687 0 6.67-3.119 7.463-4.975 0.757-1.857 1.55-5.462-1.785-8.779l-370.158-370.825c-4.146-4.146-6.49-9.788-6.49-15.683v-331.905c0-12.276 9.915-22.155 22.155-22.155 12.276 0 22.155 9.915 22.155 22.155v322.73l363.722 364.317c14.98 15.034 19.451 37.477 11.321 57.144z" />
<glyph unicode="&#xe914;" glyph-name="circle" d="M95.063 550.944h-30.347c-17.895 0-35.121-8.044-47.247-22.060-10.319-11.903-15.763-26.061-15.742-40.93v-79.971c0-16.839 6.541-32.642 18.444-44.546s27.727-18.444 44.546-18.444h30.347c7.597-30.977 18.891-61.568 33.699-91.163 5.18-10.319 10.319-19.784 15.539-28.6l-20.191-20.252c-12.614-12.594-19.256-30.185-18.22-46.617-0.406-17.428 6.073-33.719 18.22-45.825l54.174-54.153c23.766-23.806 65.224-23.806 89.111 0l21.328 21.349c37.7-23.014 78.61-39.914 121.998-50.375v-30.347c0-34.714 28.255-63.010 63.010-63.010h76.599c34.755 0 63.050 28.255 63.050 63.010v30.144c43.124 10.4 83.993 27.381 121.998 50.619l21.328-21.349c23.786-23.806 65.305-23.806 89.071 0l54.174 54.153c12.188 12.147 18.627 28.417 18.18 44.119 1.117 18.058-5.505 35.669-18.18 48.344l-20.211 20.211c5.22 8.775 10.38 18.22 15.62 28.6 14.95 29.717 26.305 60.349 33.881 91.163h30.083c16.839 0 32.642 6.541 44.546 18.444s18.424 27.727 18.424 44.505v79.991c0 14.849-5.423 29.006-15.702 40.93-12.33 14.219-29.128 22.060-47.267 22.060h-30.083c-7.577 30.855-18.931 61.446-33.881 91.204-5.241 10.339-10.4 19.805-15.62 28.58l20.231 20.211c12.634 12.675 19.236 30.286 18.159 46.577 0.427 17.428-5.992 33.739-18.18 45.886l-54.174 54.133c-23.786 23.827-65.305 23.806-89.071 0l-21.328-21.308c-38.005 23.238-78.915 40.199-122.038 50.578v30.185c0 34.735-28.275 63.010-63.030 63.010h-76.599c-34.735 0-63.010-28.255-63.010-63.010v-30.347c-43.408-10.481-84.297-27.381-121.998-50.375l-21.349 21.369c-23.827 23.766-65.325 23.766-89.071-0.020l-54.153-54.174c-12.167-12.127-18.647-28.417-18.22-44.221-1.036-18.078 5.586-35.649 18.2-48.222l20.211-20.252c-5.22-8.836-10.359-18.322-15.559-28.641-14.788-29.575-26.102-60.166-33.699-91.163zM165.081 623.887c7.333 14.625 14.544 27.28 21.999 38.716 5.241 8.044 4.144 18.647-2.641 25.452l-31.606 31.667c-4.489 4.469-6.744 10.563-6.338 18.769-0.142 6.216 2.113 11.944 6.338 16.169l54.174 54.194c8.45 8.47 23.197 8.409 31.627 0l32.866-32.886c6.825-6.825 17.57-7.922 25.635-2.539 41.682 27.747 88.096 46.922 137.923 56.997 9.486 1.909 16.291 10.238 16.291 19.886v46.658c0 12.33 10.034 22.385 22.385 22.385h76.599c12.33 0 22.425-10.034 22.425-22.385v-46.455c0-9.689 6.825-18.017 16.331-19.906 49.319-9.892 95.713-29.128 137.882-57.16 8.064-5.383 18.789-4.286 25.635 2.539l32.866 32.866c8.45 8.45 23.136 8.47 31.606-0.020l54.194-54.153c4.205-4.205 6.439-9.933 6.317-17.875 0.427-6.541-1.828-12.634-6.338-17.124l-31.606-31.606c-6.805-6.784-7.902-17.428-2.661-25.472 7.414-11.314 14.645-23.989 22.080-38.716 15.925-31.728 27.381-64.432 33.983-97.237 1.909-9.486 10.238-16.311 19.906-16.311h46.353c8.348 0 13.975-5.058 16.534-8.023 2.641-3.067 5.809-8.044 5.809-14.341v-79.991c0-5.952-2.316-11.558-6.541-15.783s-9.831-6.541-15.824-6.541h-46.374c-9.669 0-17.997-6.825-19.886-16.311-6.602-32.805-18.038-65.549-33.963-97.196-7.455-14.767-14.706-27.463-22.080-38.756-5.281-8.044-4.164-18.688 2.641-25.472l31.586-31.586c4.509-4.53 6.744-10.583 6.338-18.891 0.122-6.216-2.113-11.944-6.317-16.149l-54.194-54.153c-8.45-8.45-23.177-8.491-31.606 0l-32.866 32.886c-6.845 6.825-17.57 7.902-25.635 2.539-42.149-28.072-88.522-47.328-137.902-57.2-9.486-1.909-16.311-10.238-16.311-19.906v-46.455c0-12.309-10.075-22.385-22.425-22.385h-76.599c-12.33 0-22.385 10.034-22.385 22.385v46.658c0 9.669-6.805 17.997-16.291 19.886-49.827 10.075-96.221 29.21-137.923 56.997-3.433 2.275-7.353 3.413-11.253 3.413-5.241 0-10.461-2.052-14.381-5.952l-32.825-32.886c-8.47-8.45-23.197-8.45-31.667 0l-54.194 54.194c-4.225 4.205-6.459 9.933-6.338 17.814-0.386 6.581 1.869 12.655 6.358 17.164l31.586 31.647c6.784 6.784 7.881 17.408 2.641 25.472-7.455 11.416-14.666 24.111-21.999 38.675-15.783 31.525-27.158 64.249-33.841 97.297-1.909 9.466-10.238 16.291-19.906 16.291h-46.617c-5.972 0-11.599 2.336-15.824 6.541-4.225 4.225-6.541 9.831-6.541 15.783v80.011c0 6.256 3.148 11.213 5.83 14.28 2.6 3.006 8.186 8.044 16.534 8.044h46.617c9.669 0 17.997 6.805 19.906 16.291 6.744 33.028 18.119 65.752 33.902 97.257zM355.674 214.75h315.028c11.233 0 20.313 9.1 20.313 20.313v315.049c0 11.213-9.080 20.313-20.313 20.313h-233.473v70.2h151.898v-24.395c0-11.213 9.080-20.313 20.313-20.313 11.213 0 20.313 9.1 20.313 20.313v44.708c0 11.213-9.1 20.313-20.313 20.313h-192.523c-11.213 0-20.313-9.1-20.313-20.313v-90.513h-40.93c-11.213 0-20.313-9.1-20.313-20.313v-315.049c0-11.233 9.1-20.313 20.313-20.313zM375.987 529.779h274.403v-274.424h-274.403v274.424zM542.347 436.219h-54.438c-11.213 0-20.313-9.1-20.313-20.313v-54.458c0-11.192 9.1-20.313 20.313-20.313h4.977v-26.345c0-11.233 9.1-20.313 20.313-20.313s20.313 9.080 20.313 20.313v26.345h8.836c11.233 0 20.313 9.12 20.313 20.313v54.458c0 11.213-9.080 20.313-20.313 20.313zM508.222 395.593h13.833v-13.833h-13.833v13.833z" />
<glyph unicode="&#xe915;" glyph-name="cogwheel" d="M472 600c-70.4 0-128-57.6-128-128s57.6-128 128-128 128 57.6 128 128-57.6 128-128 128zM472 376c-52.8 0-97.6 43.2-97.6 97.6 0 52.8 43.2 97.6 97.6 97.6 52.8 0 97.6-43.2 97.6-97.6-1.6-54.4-44.8-97.6-97.6-97.6zM683.2 424l-9.6 4.8c3.2 14.4 4.8 28.8 4.8 44.8s-1.6 28.8-4.8 44.8l9.6 4.8c6.4 4.8 12.8 11.2 14.4 19.2s1.6 16-3.2 24l-32 56c-4.8 6.4-11.2 12.8-19.2 14.4s-16 1.6-24-3.2l-9.6-4.8c-22.4 19.2-48 35.2-76.8 43.2v11.2c0 17.6-14.4 30.4-30.4 30.4h-64c-17.6 0-30.4-14.4-30.4-30.4v-11.2c-28.8-9.6-54.4-24-76.8-43.2l-9.6 4.8c-6.4 4.8-16 4.8-24 3.2s-14.4-8-19.2-14.4l-32-56c-4.8-6.4-4.8-16-3.2-24s8-14.4 14.4-19.2l9.6-4.8c-3.2-14.4-4.8-28.8-4.8-44.8s1.6-28.8 4.8-44.8l-9.6-4.8c-6.4-4.8-12.8-11.2-14.4-19.2s-1.6-16 3.2-24l32-56c8-14.4 27.2-19.2 43.2-11.2l9.6 4.8c22.4-19.2 48-35.2 76.8-43.2v-11.2c0-17.6 14.4-30.4 30.4-30.4h64c17.6 0 30.4 14.4 30.4 30.4v11.2c28.8 9.6 54.4 24 76.8 43.2l9.6-4.8c14.4-8 33.6-3.2 43.2 11.2l32 56c4.8 6.4 4.8 16 3.2 24s-6.4 14.4-14.4 19.2zM641.6 521.6c4.8-16 6.4-32 6.4-48s-1.6-32-6.4-48c-1.6-6.4 1.6-14.4 6.4-17.6l19.2-11.2c0 0 0 0 0 0s0 0 0 0l-32-56c0 0-1.6 0-1.6 0l-19.2 11.2c-6.4 3.2-12.8 3.2-17.6-3.2-22.4-22.4-51.2-40-81.6-48-6.4-1.6-11.2-8-11.2-14.4v-22.4c0 0 0-1.6-1.6-1.6h-64c0 0-1.6 0-1.6 1.6v22.4c0 6.4-4.8 12.8-11.2 14.4-32 8-59.2 24-81.6 48-3.2 3.2-6.4 4.8-11.2 4.8-3.2 0-4.8 0-8-1.6l-19.2-11.2c0 0-1.6 0-1.6 0l-32 56c0 0 0 0 0 0s0 0 0 0l19.2 11.2c6.4 3.2 8 11.2 6.4 17.6-4.8 16-6.4 32-6.4 48s1.6 32 6.4 48c1.6 6.4-1.6 14.4-6.4 17.6l-19.2 11.2c0 0 0 0 0 0s0 0 0 0l32 56c0 0 1.6 0 1.6 0l19.2-11.2c6.4-3.2 12.8-3.2 17.6 3.2 22.4 22.4 51.2 40 81.6 48 6.4 1.6 11.2 8 11.2 14.4v22.4c0 0 0 1.6 1.6 1.6h64c0 0 1.6 0 1.6-1.6v-22.4c0-6.4 4.8-12.8 11.2-14.4 32-8 59.2-24 81.6-48 4.8-4.8 12.8-6.4 17.6-3.2l19.2 11.2c0 0 1.6 0 1.6 0l32-56c0 0 0 0 0 0s0 0 0 0l-19.2-11.2c-3.2-4.8-6.4-11.2-4.8-17.6z" />
<glyph unicode="&#xe916;" glyph-name="Delete" d="M447.063 561.639v-330.927c0-13.737 24.976-13.737 24.976-13.737v332.176c0 24.976-24.976 26.224-24.976 12.488zM736.78 697.756h-121.132l1.249 49.951c-1.249 23.727-1.249 23.727-23.727 23.727h-177.327c-24.976 0-24.976 0-26.224-23.727v-49.951h-119.883c-13.737 0-12.488-24.976 1.249-24.976h43.707v-530.732c1.249-24.976 1.249-24.976 24.976-24.976h324.683c24.976 0 24.976 0 24.976 24.976v530.732h44.956c14.985 1.249 16.234 24.976 2.498 24.976zM417.093 748.956h173.58v-49.951h-173.58v49.951zM664.351 142.049h-324.683l1.249 530.732h322.185v-530.732zM540.722 549.151v-330.927c0-1.249 24.976-1.249 24.976 11.239v332.176c0 12.488-24.976 13.737-24.976-12.488z" />
<glyph unicode="&#xe917;" glyph-name="Edit" d="M329.678 405.541l-44.956-64.937c-1.249-1.249-1.249-2.498-2.498-4.995 0-1.249 0-1.249 0-2.498s0-1.249 0-2.498l23.727-168.585c1.249-7.493 8.741-12.488 14.985-9.99l166.088 36.215c1.249 0 1.249 1.249 2.498 1.249 0 0 1.249 0 1.249 1.249 1.249 1.249 2.498 2.498 3.746 3.746l302.205 433.327c3.746 6.244 2.498 13.737-2.498 17.483l-189.815 132.371c-6.244 3.746-13.737 2.498-17.483-2.498l-54.946-78.673-202.302-290.966zM731.785 576.624l-249.756-358.4-41.21 28.722 249.756 358.4 41.21-28.722zM379.629 190.751l-57.444 39.961-9.99 76.176 141.112-98.653-73.678-17.483zM419.59 261.932l-46.205 32.468 249.756 358.4 46.205-32.468-249.756-358.4zM353.405 308.137l-41.21 28.722 41.21 58.693 196.059 280.976 13.737 18.732 41.21-28.722-251.005-358.4zM328.429 180.761l-2.498 17.483 19.98-13.737-17.483-3.746zM769.249 631.571l-23.727-33.717-51.2 36.215-66.185 46.205-51.2 36.215 23.727 33.717 168.585-118.634z" />
<glyph unicode="&#xe918;" glyph-name="EditPerfomance" d="M801.717 457.99h-37.463c-3.746 13.737-9.99 27.473-17.483 41.21l26.224 26.224c2.498 2.498 3.746 4.995 3.746 8.741s-1.249 6.244-3.746 8.741l-59.941 59.941c-4.995 4.995-12.488 4.995-17.483 0l-26.224-26.224c-12.488 7.493-26.224 12.488-41.21 17.483v37.463c0 7.493-4.995 12.488-12.488 12.488h-83.668c-7.493 0-12.488-4.995-12.488-12.488v-37.463c-13.737-3.746-27.473-9.99-41.21-17.483l-3.746 3.746v78.673c0 1.249 0 3.746-1.249 4.995l-1.249 1.249c0 1.249-1.249 1.249-1.249 2.498l-114.888 124.878c-4.995 4.995-13.737 4.995-18.732 0l-114.888-124.878c0-1.249-1.249-1.249-1.249-2.498l-1.249-1.249c0-1.249-1.249-2.498-1.249-4.995v-528.234c0-7.493 4.995-12.488 12.488-12.488h231.024c7.493 0 12.488 4.995 12.488 12.488v96.156l3.746 3.746c12.488-7.493 26.224-12.488 41.21-17.483v-37.463c0-7.493 4.995-12.488 12.488-12.488h83.668c7.493 0 12.488 4.995 12.488 12.488v37.463c13.737 3.746 27.473 9.99 41.21 17.483l26.224-26.224c4.995-4.995 12.488-4.995 17.483 0l59.941 59.941c2.498 2.498 3.746 4.995 3.746 8.741s-1.249 6.244-3.746 8.741l-26.224 26.224c7.493 12.488 12.488 26.224 17.483 41.21h37.463c7.493 0 12.488 4.995 12.488 12.488v83.668c0 6.244-4.995 12.488-12.488 12.488zM244.761 209.483v437.073h49.951v-437.073h-49.951zM312.195 726.478h69.932l51.2-56.195h-173.58l52.449 56.195zM319.688 646.556h56.195v-437.073h-56.195v437.073zM400.859 646.556h49.951v-435.824h-49.951v435.824zM347.161 765.19l12.488-12.488h-23.727l11.239 12.488zM244.761 143.298v41.21h206.049v-41.21h-206.049zM789.229 373.073h-34.966c-6.244 0-11.239-3.746-12.488-9.99-3.746-18.732-11.239-36.215-21.229-51.2-2.498-4.995-2.498-11.239 1.249-14.985l24.976-24.976-42.459-42.459-24.976 24.976c-3.746 3.746-9.99 4.995-14.985 1.249-16.234-9.99-33.717-17.483-51.2-21.229-6.244-1.249-9.99-6.244-9.99-12.488v-34.966h-58.693v34.966c0 6.244-3.746 11.239-9.99 12.488-18.732 3.746-36.215 11.239-51.2 21.229-2.498 1.249-4.995 2.498-8.741 1.249v289.717c2.498 0 6.244 0 8.741 1.249 16.234 9.99 33.717 17.483 51.2 21.229 6.244 1.249 9.99 6.244 9.99 12.488v36.215h58.693v-34.966c0-6.244 3.746-11.239 9.99-12.488 18.732-3.746 36.215-11.239 51.2-21.229 4.995-2.498 11.239-2.498 14.985 1.249l24.976 24.976 42.459-42.459-24.976-24.976c-3.746-3.746-4.995-9.99-1.249-14.985 9.99-16.234 17.483-33.717 21.229-51.2 1.249-6.244 6.244-9.99 12.488-9.99h34.966v-58.693zM574.439 492.956c-49.951 0-89.912-39.961-89.912-89.912s39.961-89.912 89.912-89.912 89.912 39.961 89.912 89.912-39.961 89.912-89.912 89.912zM574.439 338.107c-36.215 0-64.937 28.722-64.937 64.937s28.722 64.937 64.937 64.937 64.937-28.722 64.937-64.937-28.722-64.937-64.937-64.937z" />
<glyph unicode="&#xe919;" glyph-name="Filter" d="M789.229 746.459h-553.21c-6.244 0-9.99-4.995-9.99-9.99v-27.473c0-11.239 6.244-23.727 14.985-31.22l157.346-126.127c6.244-4.995 12.488-17.483 12.488-26.224v-362.146c0-12.488 7.493-17.483 16.234-12.488l174.829 136.117c13.737 11.239 14.985 13.737 14.985 27.473v211.044c0 8.741 6.244 21.229 12.488 26.224l157.346 126.127c8.741 6.244 14.985 19.98 14.985 31.22v27.473c-2.498 4.995-7.493 9.99-12.488 9.99zM777.99 708.995c0-4.995-3.746-11.239-7.493-14.985l-157.346-126.127c-11.239-8.741-19.98-27.473-19.98-42.459v-216.039l-164.839-129.873v345.912c0 14.985-8.741 32.468-19.98 42.459l-157.346 126.127c-3.746 2.498-7.493 9.99-7.493 14.985v17.483h533.229v-17.483zM385.873 684.020h335.922c6.244 0 9.99 4.995 9.99 9.99s-4.995 9.99-9.99 9.99h-335.922c-6.244 0-9.99-4.995-9.99-9.99s3.746-9.99 9.99-9.99v0zM302.205 684.020h42.459c6.244 0 9.99 4.995 9.99 9.99s-4.995 9.99-9.99 9.99h-42.459c-6.244 0-9.99-4.995-9.99-9.99s3.746-9.99 9.99-9.99zM564.449 552.898h-106.146c-6.244 0-9.99-4.995-9.99-9.99s4.995-9.99 9.99-9.99h106.146c6.244 0 9.99 4.995 9.99 9.99s-3.746 9.99-9.99 9.99z" />
<glyph unicode="&#xe91a;" glyph-name="Format" d="M324.683 530.42v231.024c0 8.741 6.244 14.985 14.985 14.985h454.556c8.741 0 14.985-6.244 14.985-14.985v-48.702c0-8.741-6.244-14.985-14.985-14.985s-14.985 6.244-14.985 14.985v33.717h-424.585v-216.039c0-8.741-6.244-14.985-14.985-14.985s-14.985 6.244-14.985 14.985zM459.551 544.156c0 0-1.249 0 0 0-8.741 0-14.985-7.493-14.985-14.985 0-2.498 0-6.244 0-8.741 0-7.493 7.493-13.737 14.985-13.737 0 0 1.249 0 1.249 0 8.741 0 14.985 7.493 13.737 16.234 0 2.498 0 4.995 0 7.493-1.249 7.493-7.493 13.737-14.985 13.737zM487.024 591.61c21.229 46.205 67.434 77.424 118.634 81.171 21.229 1.249 41.21-1.249 61.19-8.741 7.493-2.498 16.234 1.249 19.98 8.741 2.498 7.493-1.249 16.234-8.741 19.98-23.727 8.741-48.702 12.488-73.678 11.239-62.439-3.746-117.385-42.459-143.61-98.654-3.746-7.493 0-16.234 7.493-19.98 2.498-1.249 3.746-1.249 6.244-1.249 4.995-1.249 9.99 1.249 12.488 7.493zM515.746 414.283v-243.512c0-49.951-137.366-51.2-153.6-51.2s-153.6 1.249-153.6 51.2v243.512c0 49.951 137.366 51.2 153.6 51.2s153.6-1.249 153.6-51.2zM242.263 414.283c4.995-3.746 19.98-11.239 52.449-16.234 7.493-1.249 12.488-7.493 12.488-14.985v-63.688c0-8.741 7.493-16.234 16.234-16.234s16.234 7.493 16.234 16.234v58.693c0 3.746 1.249 7.493 4.995 11.239 2.498 2.498 6.244 3.746 11.239 3.746 2.498 0 6.244 0 8.741 0 32.468 0 62.439 2.498 86.166 8.741 19.98 4.995 31.22 9.99 34.966 12.488-3.746 2.498-13.737 8.741-34.966 12.488-23.727 4.995-54.946 8.741-86.166 8.741-32.468 0-62.439-2.498-86.166-8.741-22.478-3.746-32.468-9.99-36.215-12.488zM485.776 381.815c-36.215-14.985-96.156-17.483-117.385-18.732v-43.707c0-24.976-21.229-46.205-46.205-46.205s-46.205 21.229-46.205 46.205v51.2c-14.985 2.498-27.473 6.244-37.463 11.239v-208.546c2.498-2.498 12.488-8.741 36.215-13.737s54.946-8.741 86.166-8.741c32.468 0 62.439 2.498 86.166 8.741 24.976 4.995 33.717 11.239 36.215 13.737l2.498 208.546zM794.224 411.785c-8.741 0-14.985-6.244-14.985-14.985v-156.098h-84.917c-8.741 0-14.985-6.244-14.985-14.985s6.244-14.985 14.985-14.985h99.902c8.741 0 14.985 6.244 14.985 14.985v171.083c0 8.741-7.493 14.985-14.985 14.985zM734.283 467.98l-157.346-337.171c-2.498-4.995-7.493-8.741-13.737-8.741-2.498 0-3.746 0-6.244 1.249-7.493 3.746-11.239 12.488-7.493 19.98l157.346 337.171c-18.732 16.234-26.224 43.707-14.985 67.434 3.746 6.244 6.244 12.488 8.741 18.732 21.229 44.956 26.224 57.444 16.234 82.42-2.498 6.244-1.249 12.488 3.746 17.483 4.995 3.746 11.239 4.995 17.483 2.498 98.654-53.698 82.42-118.634 56.195-168.585v0c-11.239-23.727-36.215-36.215-59.941-32.468zM733.034 500.449c12.488-6.244 28.722 0 34.966 13.737 17.483 34.966 29.971 72.429-16.234 109.893-1.249-21.229-9.99-41.21-23.727-69.932-2.498-6.244-6.244-11.239-8.741-18.732-6.244-13.737 0-28.722 13.737-34.966-1.249 0-1.249 0 0 0 0 0 0 0 0 0s0 0 0 0z" />
<glyph unicode="&#xe91b;" glyph-name="GeneralSettings" d="M861.659 775.18h-699.317c-6.244 0-11.239-4.995-11.239-11.239v-630.634c0-6.244 4.995-11.239 11.239-11.239h700.566c6.244 0 11.239 4.995 11.239 11.239v123.629c0 6.244-4.995 11.239-11.239 11.239s-11.239-4.995-11.239-11.239v-111.141h-676.839v515.746h676.839v-358.4c0-6.244 4.995-11.239 11.239-11.239s11.239 4.995 11.239 11.239v462.049c0 4.995-4.995 9.99-12.488 9.99zM173.58 752.702h427.083v-68.683h-427.083v68.683zM623.141 682.771v68.683h227.278v-68.683h-227.278zM738.029 730.224c-6.244 0-12.488-4.995-12.488-12.488 0-6.244 4.995-12.488 12.488-12.488 6.244 0 12.488 4.995 12.488 12.488-1.249 6.244-6.244 12.488-12.488 12.488zM674.341 730.224c-6.244 0-12.488-4.995-12.488-12.488 0-6.244 4.995-12.488 12.488-12.488 6.244 0 12.488 4.995 12.488 12.488 0 6.244-6.244 12.488-12.488 12.488zM800.468 730.224c-6.244 0-12.488-4.995-12.488-12.488 0-6.244 4.995-12.488 12.488-12.488 6.244 0 12.488 4.995 12.488 12.488 0 6.244-4.995 12.488-12.488 12.488zM383.376 582.868l92.41-92.41c4.995-4.995 11.239-4.995 16.234 0s4.995 11.239 0 16.234l-101.151 101.151c-4.995 4.995-11.239 4.995-16.234 0l-68.683-67.434c-2.498-2.498-3.746-4.995-3.746-8.741 0-2.498 1.249-6.244 3.746-8.741l44.956-44.956c0 0 56.195-56.195 56.195-56.195 2.498-2.498 4.995-3.746 8.741-3.746 2.498 0 6.244 1.249 8.741 3.746 4.995 4.995 4.995 11.239 0 16.234l-3.746 3.746 26.224 26.224c4.995 4.995 4.995 11.239 0 16.234s-11.239 4.995-16.234 0l-26.224-26.224-28.722 28.722 26.224 26.224c4.995 4.995 4.995 11.239 0 16.234s-11.239 4.995-16.234 0l-26.224-26.224-28.722 28.722 52.449 51.2zM543.22 286.907c0 0 88.663-88.663 88.663-88.663 2.498-2.498 4.995-3.746 8.741-3.746s6.244 1.249 8.741 3.746l67.434 67.434c4.995 4.995 4.995 11.239 0 16.234l-101.151 101.151c-4.995 4.995-11.239 4.995-16.234 0s-4.995-11.239 0-16.234l93.659-93.659-51.2-51.2-28.722 28.722 26.224 26.224c4.995 4.995 4.995 11.239 0 16.234s-11.239 4.995-16.234 0l-26.224-26.224-28.722 28.722 26.224 26.224c4.995 4.995 4.995 11.239 0 16.234s-11.239 4.995-16.234 0l-26.224-26.224-3.746 3.746c-4.995 4.995-11.239 4.995-16.234 0s-4.995-11.239 0-16.234l11.239-12.488zM315.941 194.498c1.249 0 2.498 0 4.995 1.249l101.151 43.707c0 0 0 0 0 0s0 0 0 0 0 0 1.249 0c0 0 0 0 0 0s0 0 0 0 0 0 0 0 0 0 0 0 0 0 1.249 1.249l249.756 249.756c0 0 29.971 29.971 29.971 29.971 9.99 9.99 14.985 23.727 14.985 37.463s-4.995 27.473-14.985 37.463c-9.99 9.99-23.727 14.985-37.463 14.985s-27.473-4.995-37.463-14.985l-29.971-29.971c0 0-249.756-249.756-249.756-249.756s0 0-1.249-1.249c0 0 0 0 0 0s0 0 0 0 0 0 0 0 0 0 0 0 0 0 0-1.249c0 0 0 0 0 0v0c0 0-43.707-101.151-43.707-101.151-1.249-3.746-1.249-8.741 2.498-12.488 2.498-3.746 6.244-4.995 8.741-4.995v0zM608.156 540.41l41.21-41.21-233.522-233.522-41.21 41.21 233.522 233.522zM645.62 577.873c4.995 4.995 12.488 8.741 21.229 8.741 7.493 0 14.985-2.498 21.229-8.741 4.995-4.995 8.741-12.488 8.741-21.229 0-7.493-2.498-14.985-8.741-21.229l-21.229-21.229-41.21 41.21 19.98 22.478zM363.395 286.907l33.717-33.717-58.693-24.976 24.976 58.693z" />
<glyph unicode="&#xe91c;" glyph-name="PanelOfPerfomance" d="M318.439 655.298h-126.127v33.717h126.127c11.239 0 19.98-4.995 19.98-16.234s-8.741-17.483-19.98-17.483zM390.868 579.122c-51.2 0-92.41 41.21-92.41 92.41s41.21 92.41 92.41 92.41 92.41-41.21 92.41-92.41c0-49.951-41.21-92.41-92.41-92.41zM390.868 723.98c-28.722 0-52.449-23.727-52.449-52.449s23.727-52.449 52.449-52.449 52.449 23.727 52.449 52.449-23.727 52.449-52.449 52.449zM839.18 655.298h-302.205v33.717h302.205v-33.717zM663.102 335.61c-51.2 0-92.41 41.21-92.41 92.41s41.21 92.41 92.41 92.41 92.41-41.21 92.41-92.41c0-51.2-41.21-92.41-92.41-92.41zM663.102 480.468c-28.722 0-52.449-23.727-52.449-52.449s23.727-52.449 52.449-52.449 52.449 23.727 52.449 52.449c0 28.722-23.727 52.449-52.449 52.449zM516.995 408.039h-324.683v36.215h324.683v-36.215zM839.18 408.039h-103.649c-11.239 0-19.98 8.741-19.98 19.98s8.741 16.234 19.98 16.234h103.649v-36.215zM368.39 90.849c-51.2 0-92.41 41.21-92.41 92.41s41.21 92.41 92.41 92.41 92.41-41.21 92.41-92.41c0-51.2-41.21-92.41-92.41-92.41zM368.39 235.707c-28.722 0-52.449-23.727-52.449-52.449s23.727-52.449 52.449-52.449 52.449 23.727 52.449 52.449c0 28.722-23.727 52.449-52.449 52.449zM839.18 167.024l-324.683-1.249v37.463h324.683v-36.215zM295.961 165.776h-104.898v37.463h103.649c11.239 0 19.98-8.741 19.98-19.98 1.249-11.239-7.493-17.483-18.732-17.483z" />
<glyph unicode="&#xe91d;" glyph-name="SettingsOfFilters" d="M789.229 776.429h-553.21c-6.244 0-9.99-4.995-9.99-9.99v-27.473c0-11.239 6.244-23.727 14.985-31.22l157.346-126.127c6.244-4.995 12.488-17.483 12.488-26.224v-108.644c0-6.244 4.995-9.99 9.99-9.99h186.068c6.244 0 9.99 4.995 9.99 9.99v108.644c0 8.741 6.244 21.229 12.488 26.224l157.346 126.127c8.741 6.244 14.985 19.98 14.985 31.22v27.473c-2.498 4.995-7.493 9.99-12.488 9.99zM777.99 737.717c0-4.995-3.746-11.239-7.493-14.985l-157.346-126.127c-11.239-8.741-19.98-27.473-19.98-42.459v-97.405h-164.839v97.405c0 14.985-8.741 32.468-19.98 42.459l-157.346 126.127c-3.746 2.498-7.493 9.99-7.493 14.985v17.483h533.229v-17.483zM385.873 712.741h335.922c6.244 0 9.99 4.995 9.99 9.99s-4.995 9.99-9.99 9.99h-335.922c-6.244 0-9.99-4.995-9.99-9.99s3.746-9.99 9.99-9.99v0zM302.205 712.741h42.459c6.244 0 9.99 4.995 9.99 9.99s-4.995 9.99-9.99 9.99h-42.459c-6.244 0-9.99-4.995-9.99-9.99s3.746-9.99 9.99-9.99zM564.449 582.868h-106.146c-6.244 0-9.99-4.995-9.99-9.99s4.995-9.99 9.99-9.99h106.146c6.244 0 9.99 4.995 9.99 9.99s-3.746 9.99-9.99 9.99zM629.385 243.2l-6.244 3.746c1.249 7.493 2.498 13.737 2.498 21.229 0 6.244-1.249 13.737-2.498 21.229l6.244 3.746c17.483 9.99 23.727 32.468 13.737 49.951s-32.468 23.727-49.951 13.737l-6.244-3.746c-9.99 8.741-22.478 16.234-36.215 21.229v7.493c0 19.98-16.234 36.215-36.215 36.215s-36.215-16.234-36.215-36.215v-7.493c-13.737-4.995-24.976-11.239-36.215-21.229l-6.244 3.746c-8.741 4.995-18.732 6.244-27.473 3.746s-17.483-8.741-22.478-17.483c-9.99-17.483-3.746-39.961 13.737-49.951l6.244-3.746c-1.249-7.493-2.498-13.737-2.498-21.229 0-6.244 1.249-13.737 2.498-21.229l-6.244-3.746c-17.483-9.99-23.727-32.468-13.737-49.951s32.468-23.727 49.951-13.737l6.244 3.746c9.99-8.741 22.478-16.234 36.215-21.229v-7.493c0-19.98 16.234-36.215 36.215-36.215s36.215 16.234 36.215 36.215v7.493c13.737 4.995 24.976 11.239 36.215 21.229l6.244-3.746c17.483-9.99 39.961-3.746 49.951 13.737 9.99 18.732 3.746 39.961-13.737 49.951zM623.141 205.737c-3.746-6.244-11.239-8.741-17.483-4.995l-13.737 7.493c-4.995 2.498-9.99 1.249-13.737-2.498-11.239-11.239-24.976-18.732-39.961-23.727-4.995-1.249-8.741-6.244-8.741-11.239v-14.985c0-7.493-6.244-13.737-13.737-13.737s-13.737 6.244-13.737 13.737v16.234c0 4.995-3.746 9.99-8.741 11.239-14.985 3.746-29.971 12.488-39.961 23.727-2.498 2.498-4.995 3.746-8.741 3.746-2.498 0-3.746 0-6.244-1.249l-13.737-7.493c-6.244-3.746-13.737-1.249-17.483 4.995s-1.249 13.737 4.995 17.483l13.737 7.493c4.995 2.498 6.244 7.493 4.995 13.737-2.498 7.493-3.746 16.234-3.746 23.727s1.249 14.985 3.746 23.727c1.249 4.995-1.249 9.99-4.995 13.737l-13.737 7.493c-6.244 3.746-8.741 11.239-4.995 17.483 1.249 2.498 4.995 4.995 7.493 6.244 3.746 1.249 7.493 0 9.99-1.249l13.737-7.493c4.995-2.498 9.99-1.249 13.737 2.498 11.239 11.239 24.976 18.732 39.961 23.727 4.995 1.249 8.741 6.244 8.741 11.239v14.985c0 7.493 6.244 13.737 13.737 13.737s13.737-6.244 13.737-13.737v-14.985c0-4.995 3.746-9.99 8.741-11.239 14.985-3.746 29.971-12.488 39.961-23.727 3.746-3.746 9.99-4.995 13.737-2.498l13.737 7.493c6.244 3.746 13.737 1.249 17.483-4.995s1.249-13.737-4.995-17.483l-13.737-7.493c-4.995-2.498-6.244-7.493-4.995-13.737 2.498-7.493 3.746-16.234 3.746-23.727s-1.249-14.985-3.746-23.727c-1.249-4.995 1.249-9.99 4.995-13.737l13.737-7.493c7.493-4.995 9.99-12.488 6.244-18.732zM515.746 316.878c-26.224 0-48.702-21.229-48.702-48.702 0-26.224 21.229-48.702 48.702-48.702s48.702 21.229 48.702 48.702c0 26.224-22.478 48.702-48.702 48.702zM515.746 241.951c-13.737 0-24.976 11.239-24.976 24.976s11.239 24.976 24.976 24.976c13.737 0 24.976-11.239 24.976-24.976s-11.239-24.976-24.976-24.976z" />
<glyph unicode="&#xe91e;" glyph-name="Sorting" d="M445.815 271.922c0 14.985 0 478.283 0 507.005 0 34.966-22.478 42.459-46.205 22.478-7.493-6.244-163.59-141.112-178.576-154.849s6.244-42.459 24.976-32.468c13.737 12.488 161.093 138.615 161.093 138.615s1.249-465.795 1.249-482.029c0-19.98 37.463-21.229 37.463 1.249zM550.712 645.307c0-16.234 0-472.039 0-507.005s22.478-39.961 46.205-22.478c3.746 0 163.59 141.112 178.576 154.849 13.737 12.488-4.995 46.205-24.976 32.468-3.746-3.746-161.093-138.615-161.093-138.615s0 463.298-1.249 482.029c-1.249 16.234-37.463 14.985-37.463-1.249z" />
<glyph unicode="&#xe91f;" glyph-name="square" d="M855.105 724.566c9.477 0 18.752 3.895 25.488 10.578 6.727 6.731 10.573 16.011 10.573 25.483 0 9.52-3.846 18.8-10.573 25.531-6.731 6.683-16.011 10.53-25.488 10.53-9.52 0-18.795-3.846-25.531-10.53-6.731-6.731-10.578-16.011-10.578-25.531 0-9.472 3.846-18.752 10.578-25.483 6.731-6.683 16.011-10.578 25.531-10.578zM725.286 724.566c9.477 0 18.752 3.846 25.488 10.578 6.727 6.731 10.573 16.011 10.573 25.531 0 9.472-3.846 18.752-10.573 25.483-6.731 6.683-16.011 10.53-25.488 10.53-9.52 0-18.795-3.846-25.531-10.53-6.731-6.731-10.578-16.011-10.578-25.483 0-9.52 3.846-18.8 10.578-25.531s16.011-10.578 25.531-10.578zM595.467 724.566c9.477 0 18.752 3.895 25.488 10.578 6.727 6.731 10.573 16.011 10.573 25.483 0 9.52-3.846 18.8-10.573 25.531-6.731 6.683-16.011 10.53-25.488 10.53-9.515 0-18.795-3.846-25.531-10.53-6.683-6.731-10.53-16.011-10.53-25.531 0-9.472 3.851-18.752 10.53-25.483 6.736-6.683 16.011-10.578 25.531-10.578zM987.939 908.659h-951.878c-19.92 0-36.061-16.146-36.061-36.061v-849.196c0-19.915 16.141-36.061 36.061-36.061h951.878c19.92 0 36.061 16.146 36.061 36.061v849.196c0 19.915-16.146 36.061-36.061 36.061zM951.878 836.537v-151.797h-879.756v151.797h879.756zM72.122 59.463v553.155h879.756v-553.155h-879.756zM658.703 372.106h-110.644v110.64c0 19.915-16.141 36.061-36.061 36.061s-36.061-16.146-36.061-36.061v-110.644h-110.64c-19.92 0-36.061-16.146-36.061-36.061s16.141-36.061 36.061-36.061h110.644v-110.649c0-19.915 16.141-36.061 36.061-36.061s36.061 16.146 36.061 36.061v110.649h110.644c19.92 0 36.061 16.146 36.061 36.061-0.005 19.92-16.146 36.066-36.066 36.066z" />
<glyph unicode="&#xe920;" glyph-name="message" d="M1023.982 698.597c0 21.86-8.634 41.637-22.409 56.716-0.229 0.299-0.281 0.653-0.529 0.954-0.229 0.264-0.547 0.371-0.795 0.617-15.663 16.387-37.735 26.751-62.314 26.751h-851.872c-24.579 0-46.651-10.364-62.349-26.751-0.229-0.246-0.566-0.353-0.795-0.636-0.248-0.283-0.299-0.653-0.529-0.954-13.755-15.079-22.39-34.837-22.39-56.697v-501.192c0-22.39 8.988-42.642 23.361-57.847 0.283-0.316 0.371-0.706 0.689-1.007 0.105-0.105 0.229-0.122 0.336-0.229 15.663-15.964 37.469-25.958 61.678-25.958h851.872c24.209 0 46.034 10.011 61.678 25.973 0.105 0.090 0.229 0.124 0.335 0.212 0.301 0.283 0.388 0.671 0.671 0.972 14.391 15.202 23.379 35.473 23.379 57.882v501.194h-0.018zM688.823 474.487l295.094 244.681c2.895-6.286 4.608-13.225 4.608-20.57v-501.192c0-6.641-1.377-12.944-3.761-18.753l-295.941 295.834zM937.935 748.586c7.434 0 14.444-1.695 20.818-4.556l-446.754-370.404-446.754 370.404c6.375 2.859 13.385 4.556 20.818 4.556h851.872zM39.236 178.669c-2.384 5.791-3.761 12.112-3.761 18.753v501.175c0 7.345 1.713 14.286 4.608 20.57l295.094-244.681-295.941-295.817zM86.063 147.432c-8.192 0-15.822 2.12-22.671 5.543l299.048 298.926 138.171-114.564c3.284-2.737 7.345-4.114 11.389-4.114s8.105 1.377 11.389 4.114l138.171 114.564 299.048-298.926c-6.852-3.425-14.478-5.543-22.673-5.543h-851.871z" />
<glyph unicode="&#xe921;" glyph-name="notification" d="M820.246 307.364c-41.3 24.875-66.967 69.894-66.967 117.473v203.607c0 97.44-54.575 181.769-134.559 222.148 0.018 0.829 0.203 1.602 0.203 2.43 0 58.994-47.983 106.977-106.959 106.977-58.994 0-106.977-47.983-106.977-106.996 0-0.737 0.166-1.399 0.184-2.117-80.353-40.066-134.449-123.549-134.449-216.164v-209.904c0-10.182 8.249-18.413 18.413-18.413h215.004c10.164 0 18.413 8.23 18.413 18.413s-8.249 18.413-18.413 18.413h-196.592v191.491c0 95.23 67.39 179.21 160.245 199.685 9.924 2.191 16.203 12.005 14.012 21.929-2.21 9.924-12.023 16.222-21.948 14.030-5.69-1.252-11.232-2.836-16.755-4.474 6.095 32.554 34.579 57.282 68.863 57.282 34.34 0 62.879-24.857 68.863-57.503-18.265 5.524-37.341 9.151-57.19 10.090-9.722 0.405-18.762-7.365-19.26-17.529-0.479-10.164 7.365-18.762 17.529-19.26 109.076-5.137 194.548-97.605 194.548-210.53v-203.607c0-60.412 32.498-117.528 84.79-149.032 50.782-30.528 83.041-81.881 88.694-139.789h-755.894c5.671 57.908 37.912 109.261 88.694 139.807 22.408 13.478 41.833 32.093 56.159 53.82 5.597 8.488 3.259 19.904-5.229 25.52-8.47 5.579-19.922 3.241-25.501-5.229-11.324-17.179-26.698-31.872-44.43-42.552-67.261-40.471-107.438-111.415-107.438-189.779 0-10.182 8.249-18.413 18.413-18.413h794.523c10.182 0 18.413 8.23 18.413 18.413 0.037 78.364-40.14 149.29-107.401 189.761zM617.873 78.698c-10.182 0-18.413-8.23-18.413-18.413 0-48.223-39.237-87.46-87.442-87.46-48.223 0-87.46 39.237-87.46 87.46 0 10.182-8.249 18.413-18.413 18.413s-18.413-8.23-18.413-18.413c0-68.532 55.753-124.285 124.285-124.285s124.267 55.753 124.267 124.285c0 10.164-8.249 18.413-18.413 18.413z" />
<glyph unicode="&#xe922;" glyph-name="panel" d="M834.069 484.587c-9.124 0-16.516-7.393-16.516-16.516v-206.932c0-9.124 7.393-16.516 16.516-16.516s16.516 7.393 16.516 16.516v206.932c0 9.124-7.393 16.516-16.516 16.516zM792.772 495.597h82.592c9.124 0 16.516 7.393 16.516 16.516v168.374c0 9.124-7.393 16.516-16.516 16.516h-24.779v67.945c0 9.124-7.393 16.516-16.516 16.516s-16.516-7.393-16.516-16.516v-67.945h-24.781c-9.124 0-16.516-7.393-16.516-16.516v-168.374c0-9.121 7.393-16.516 16.516-16.516zM809.288 663.972h49.559v-135.342h-49.559v135.342zM619.357 315.781c-9.124 0-16.516-7.393-16.516-16.516v-40.418c0-9.124 7.393-16.516 16.516-16.516s16.516 7.393 16.516 16.516v40.418c0 9.124-7.393 16.516-16.516 16.516zM578.060 326.791h82.592c9.124 0 16.516 7.393 16.516 16.516v168.374c0 9.124-7.393 16.516-16.516 16.516h-24.779v234.459c0 9.124-7.393 16.516-16.516 16.516s-16.516-7.393-16.516-16.516v-234.459h-24.781c-9.124 0-16.516-7.393-16.516-16.516v-168.374c0-9.124 7.393-16.516 16.516-16.516zM594.576 495.166h49.559v-135.342h-49.559v135.342zM404.645 484.587c-9.121 0-16.516-7.393-16.516-16.516v-206.932c0-9.124 7.395-16.516 16.516-16.516s16.516 7.393 16.516 16.516v206.932c0 9.124-7.395 16.516-16.516 16.516zM363.348 495.597h82.592c9.121 0 16.516 7.393 16.516 16.516v168.374c0 9.124-7.395 16.516-16.516 16.516h-24.779v67.945c0 9.124-7.395 16.516-16.516 16.516s-16.516-7.393-16.516-16.516v-67.945h-24.779c-9.121 0-16.516-7.393-16.516-16.516v-168.374c-0.002-9.121 7.393-16.516 16.514-16.516zM379.864 663.972h49.559v-135.342h-49.559v135.342zM189.933 315.781c-9.121 0-16.516-7.393-16.516-16.516v-40.418c0-9.124 7.395-16.516 16.516-16.516s16.516 7.393 16.516 16.516v40.418c0 9.124-7.395 16.516-16.516 16.516zM148.636 326.791h82.592c9.121 0 16.516 7.393 16.516 16.516v168.374c0 9.124-7.395 16.516-16.516 16.516h-24.779v234.459c0 9.124-7.395 16.516-16.516 16.516s-16.516-7.393-16.516-16.516v-234.459h-24.781c-9.121 0-16.516-7.393-16.516-16.516v-168.374c0-9.124 7.395-16.516 16.516-16.516zM165.152 495.166h49.559v-135.342h-49.559v135.342zM1007.484 868.404h-990.968c-9.121 0-16.516-7.393-16.516-16.516v-774.745c0-27.32 22.226-49.548 49.548-49.548h924.903c27.32 0 49.548 22.229 49.548 49.548v774.745c0 9.124-7.393 16.516-16.516 16.516zM990.968 835.371v-646.948h-957.935v646.948h957.935zM974.452 60.629h-924.903c-9.108 0-16.516 7.408-16.516 16.516v78.247h957.935v-78.247c0-9.108-7.408-16.516-16.516-16.516z" />
<glyph unicode="&#xe923;" glyph-name="exit" d="M494.656-5.324h-267.083c-72.584 0-131.477 59.11-131.477 131.477v643.694c0 72.584 59.11 131.477 131.477 131.477h271.43c16.299 0 29.338 13.039 29.338 29.338s-13.039 29.338-29.338 29.338h-271.43c-104.964 0-190.153-85.406-190.153-190.153v-643.694c0-104.964 85.406-190.153 190.153-190.153h267.083c16.299 0 29.338 13.039 29.338 29.338s-13.256 29.338-29.338 29.338zM977.97 468.645l-186.458 186.458c-11.518 11.518-29.99 11.518-41.508 0s-11.518-29.99 0-41.508l136.475-136.475h-595.233c-16.299 0-29.338-13.039-29.338-29.338s13.039-29.338 29.338-29.338h595.233l-136.475-136.475c-11.518-11.518-11.518-29.99 0-41.508 5.65-5.65 13.256-8.693 20.645-8.693s14.995 2.825 20.645 8.693l186.458 186.458c11.735 11.735 11.735 30.424 0.217 41.725z" />
<glyph unicode="&#xe924;" glyph-name="Add2" d="M512 190.751c-17.483 0-22.478 13.737-22.478 31.22l-2.498 512c0 17.483 6.244 33.717 24.976 33.717s24.976-13.737 24.976-31.22l2.498-514.498c-1.249-16.234-9.99-31.22-27.473-31.22zM768 459.239h-512c-17.483 0-33.717 2.498-33.717 22.478 0 17.483 14.985 22.478 36.215 22.478h512c17.483 0 31.22-4.995 31.22-22.478 0-12.488-13.737-22.478-33.717-22.478z" />
<glyph unicode="&#xe925;" glyph-name="Back" d="M457.728 370.176h-16.384l-113.664 126.976 113.664 126.976h17.408l-112.64-126.976 111.616-126.976zM549.888 370.176h-16.384l-114.688 126.976 113.664 126.976h17.408l-112.64-126.976 112.64-126.976z" />
<glyph unicode="&#xe926;" glyph-name="Next" d="M645.12 593.408h16.384l113.664-126.976-113.664-126.976h-17.408l112.64 126.976-111.616 126.976zM553.984 593.408h16.384l113.664-126.976-113.664-126.976h-17.408l112.64 126.976-111.616 126.976z" />
<glyph unicode="&#xe927;" glyph-name="music" d="M768 448c-141.382 0-256-114.618-256-256s114.618-256 256-256 256 114.618 256 256-114.618 256-256 256zM768-17.455c-115.689 0-209.455 93.766-209.455 209.455s93.766 209.455 209.455 209.455 209.455-93.766 209.455-209.455-93.766-209.455-209.455-209.455zM861.091 215.273h-69.818v69.818c0 12.87-10.426 23.273-23.273 23.273s-23.273-10.403-23.273-23.273v-69.818h-69.818c-12.847 0-23.273-10.403-23.273-23.273s10.426-23.273 23.273-23.273h69.818v-69.818c0-12.87 10.426-23.273 23.273-23.273s23.273 10.403 23.273 23.273v69.818h69.818c12.847 0 23.273 10.403 23.273 23.273s-10.426 23.273-23.273 23.273zM23.273 913.455h651.636c12.847 0 23.273 10.403 23.273 23.273s-10.426 23.273-23.273 23.273h-651.636c-12.847 0-23.273-10.403-23.273-23.273s10.426-23.273 23.273-23.273zM558.545 494.545h-535.273c-12.847 0-23.273-10.403-23.273-23.273s10.426-23.273 23.273-23.273h535.273c12.847 0 23.273 10.403 23.273 23.273s-10.426 23.273-23.273 23.273zM674.909 727.273h-651.636c-12.847 0-23.273-10.403-23.273-23.273s10.426-23.273 23.273-23.273h651.636c12.847 0 23.273 10.403 23.273 23.273s-10.426 23.273-23.273 23.273zM395.636 261.818h-372.364c-12.847 0-23.273-10.403-23.273-23.273s10.426-23.273 23.273-23.273h372.364c12.847 0 23.273 10.403 23.273 23.273s-10.426 23.273-23.273 23.273z" />
<glyph unicode="&#xe928;" glyph-name="magick" horiz-adv-x="808" d="M466.728 578.695l81.112-153.061c3.503-6.467 2.425-14.282-2.964-19.672-5.12-5.12-13.204-6.467-19.672-2.964l-153.869 80.842-153.869-80.842c-2.695-1.347-5.389-1.886-8.084-1.886-4.312 0-8.623 1.617-11.857 4.851-5.12 5.389-6.467 13.204-2.964 19.672l81.381 153.061-81.381 153.061c-3.503 6.467-2.156 14.282 2.964 19.672 5.12 5.12 13.204 6.467 19.941 2.964l153.869-80.842 153.869 80.842c6.467 3.503 14.552 2.156 19.672-2.964 5.389-5.389 6.467-13.204 2.964-19.672zM379.149 639.596c-4.851-2.425-10.779-2.425-15.899 0l-113.179 59.554 59.823-112.64c2.695-4.851 2.695-10.779 0-15.629l-59.823-112.64 113.179 59.554c2.695 1.347 5.389 1.886 8.084 1.886s5.389-0.539 7.815-1.886l113.448-59.554-60.093 112.64c-2.425 4.851-2.425 10.779 0 15.629l60.093 112.64zM422.265-12.531c0-28.025-22.905-50.661-50.931-50.661-28.295 0-51.2 22.636-51.2 50.661v385.347c0 28.025 22.905 50.661 51.2 50.661 28.025 0 50.931-22.636 50.931-50.661zM371.335 390.063c-9.432 0-17.246-7.815-17.246-17.246v-385.347c0-9.432 7.545-17.246 17.246-17.246 9.432 0 17.246 7.815 17.246 17.246v385.347c0 9.432-7.815 17.246-17.246 17.246zM332.531 771.368c-6.467 6.467-6.467 16.977 0 23.714l22.636 22.366-22.636 22.366c-6.467 6.467-6.467 17.246 0 23.714 6.737 6.467 17.246 6.467 23.983 0l22.366-22.366 22.636 22.366c6.467 6.467 17.246 6.467 23.714 0 6.737-6.467 6.737-17.246 0-23.714l-22.366-22.366 22.366-22.366c6.737-6.737 6.737-17.246 0-23.714-3.234-3.234-7.545-5.12-11.857-5.12s-8.623 1.886-11.857 5.12l-22.636 22.366-22.366-22.366c-6.737-6.737-17.246-6.737-23.983 0zM661.288 556.328c-3.234-3.234-7.545-4.851-11.857-4.851-4.581 0-8.893 1.617-12.126 4.851l-22.366 22.366-22.636-22.366c-6.467-6.467-17.246-6.467-23.983 0-6.467 6.737-6.467 17.246 0 23.714l22.636 22.366-22.636 22.366c-6.467 6.737-6.467 17.246 0 23.714 6.737 6.737 17.516 6.737 23.983 0l22.636-22.366 22.366 22.366c6.737 6.737 17.246 6.737 23.983 0 6.467-6.467 6.467-16.977 0-23.714l-22.636-22.366 22.636-22.366c6.467-6.467 6.467-16.977 0-23.714zM129.617 602.408l22.636-22.366c6.467-6.467 6.467-16.977 0-23.714-3.234-3.234-7.545-4.851-11.857-4.851s-8.623 1.617-12.126 4.851l-22.366 22.366-22.636-22.366c-6.467-6.467-17.246-6.467-23.714 0-6.737 6.737-6.737 17.246 0 23.714l22.366 22.366-22.366 22.366c-6.737 6.737-6.737 17.246 0 23.714 6.467 6.737 17.246 6.737 23.714 0l22.636-22.366 22.366 22.366c6.737 6.737 17.246 6.737 23.983 0 6.467-6.467 6.467-16.977 0-23.714zM140.396 359.074l3.234-3.234c6.467-6.737 6.467-17.246 0-23.714-3.234-3.503-7.545-5.12-11.857-5.12s-8.623 1.617-12.126 5.12l-3.234 3.234c-6.737 6.467-6.737 17.246 0 23.714 6.467 6.467 17.246 6.467 23.983 0zM8.354 475.486c6.467 6.467 17.246 6.467 23.714 0 6.737-6.467 6.737-17.246 0-23.714l-3.234-3.503c-3.234-3.234-7.545-4.851-11.857-4.851s-8.623 1.617-12.126 4.851c-6.467 6.737-6.467 17.246 0 23.983zM654.013 439.377c6.737 6.737 17.246 6.737 23.983 0 6.467-6.467 6.467-16.977 0-23.714l-3.503-3.234c-3.234-3.234-7.545-4.851-11.857-4.851s-8.623 1.617-11.857 4.851c-6.737 6.467-6.737 17.246 0 23.714zM802.493 606.989c6.467-6.467 6.467-17.246 0-23.714-3.234-3.234-7.545-4.851-11.857-4.851s-8.623 1.617-12.126 4.851l-3.234 3.234c-6.737 6.737-6.737 17.246 0 23.714 6.467 6.737 17.246 6.737 23.714 0zM637.844 809.095c-9.432 0-16.977 7.545-16.977 16.707 0 9.432 7.545 16.977 16.977 16.977h4.851c9.162 0 16.707-7.545 16.707-16.977 0-9.162-7.545-16.707-16.707-16.707zM438.973 926.316c-9.432 0-16.977 7.545-16.977 16.977 0 9.162 7.545 16.707 16.977 16.707h4.581c9.432 0 16.977-7.545 16.977-16.707 0-9.432-7.545-16.977-16.977-16.977zM66.829 755.739h4.581c9.432 0 16.977-7.545 16.977-16.707s-7.545-16.707-16.977-16.707h-4.581c-9.432 0-16.977 7.545-16.977 16.707s7.545 16.707 16.977 16.707zM215.309 881.853c6.467 6.737 6.467 17.246 0 23.714-6.737 6.737-17.246 6.737-23.983 0l-3.234-3.234c-6.737-6.467-6.737-17.246 0-23.714 3.234-3.234 7.545-4.851 11.857-4.851s8.623 1.617 11.857 4.851z" />
<glyph unicode="&#xe929;" glyph-name="message2" horiz-adv-x="1065" d="M414.106 94.515c-4.096 6.144-8.192 12.288-11.469 18.432-5.734 1.229-11.469 2.048-17.203 3.686-14.746 2.867-29.082 7.373-43.418 11.878-13.107-9.421-26.214-17.613-39.322-24.166-83.149-44.237-159.744-39.322-203.981-30.31 37.683 28.262 63.488 68.813 79.462 99.123 7.373 13.926 12.288 25.805 15.565 33.178-7.373 5.325-14.336 11.059-21.299 17.203-83.968 74.138-135.987 177.766-135.987 290.816 0 226.099 204.8 409.6 457.114 409.6 235.93 0 430.49-159.334 454.656-365.363 1.638-11.469 1.638-22.118 1.638-32.358h0.819v-1.638c7.782-6.144 15.155-12.698 22.118-19.661 4.096-4.096 7.373-8.602 12.288-12.698 0 5.325 1.229 10.65 1.229 15.974 0 2.048 0.41 4.096 0.41 6.144 0 10.65-0.41 21.709-1.638 32.358-18.432 230.605-231.834 413.286-491.93 413.286-271.974 0-493.158-199.475-493.158-445.645 0-124.518 56.934-237.158 148.685-318.669-17.613-34.816-52.429-89.702-103.219-111.411-6.554-2.458-10.65-9.421-10.65-16.384 0-7.373 4.096-13.926 10.65-16.794 3.686-1.229 48.333-19.251 112.23-19.251 53.248 0 120.422 12.288 188.826 56.934 26.624-7.782 54.886-12.698 83.149-16.384-3.686 4.096-6.554 8.192-9.83 12.698-0.819 2.867-3.686 5.734-5.734 9.421zM980.992 66.253c6.144 6.144 11.878 12.698 16.794 19.661 38.912 48.333 61.44 107.315 61.44 171.622 0 22.118-2.458 43.827-7.373 64.307-2.048 7.373-4.096 15.155-6.963 22.118-0.41 2.048-1.229 4.096-2.048 5.734-6.144 16.384-13.517 31.949-22.528 47.514 9.011-15.155 16.384-31.13 22.528-47.514-9.421 27.443-23.757 52.429-41.37 74.957-0.819 1.638-2.048 3.277-3.686 4.506 0 0 0 0.41-0.41 0.41 0 0 0 0.41-0.41 0.819h-0.41c-9.421 11.878-21.299 23.347-31.539 33.587v-0.41c0 0.41-0.819 1.229-2.048 2.048-13.517 12.288-27.853 23.757-43.418 32.768-20.070 12.288-40.96 22.118-62.259 30.31-2.867 1.229-5.734 2.048-8.192 3.277-3.277 0.819-6.144 2.048-9.421 2.867-2.867 1.229-6.144 2.048-9.011 2.867-6.144 1.229-12.288 2.867-19.251 4.506-24.576 5.734-50.381 8.192-77.005 8.192-95.437 0-181.043-36.864-240.435-96.256-4.915-4.915-9.421-9.83-14.336-14.746-2.867-3.686-6.144-7.373-8.602-11.059-2.867-3.686-5.734-6.963-8.192-10.65-4.096-5.734-8.192-11.878-11.878-18.022-3.277-6.144-6.963-12.288-10.65-18.432-3.686-7.373-6.963-14.336-10.24-21.709-8.192-19.661-14.336-40.141-17.203-61.85-0.819-2.458-1.229-4.915-1.229-8.192-0.819-8.192-1.638-16.384-2.048-24.576 0-2.867 0-5.734 0-8.192 0-5.734 0-11.469 0.41-17.203 0-2.048 0-3.686 0.819-5.734 0-2.458 0.41-4.915 0.41-6.963 0.41-6.144 1.638-11.878 2.458-17.613 1.229-4.915 2.048-10.24 3.277-15.565 0.819-3.277 1.229-6.554 2.458-10.24 8.602-29.901 22.118-58.163 39.731-83.149 2.048-3.277 4.096-5.734 6.144-9.011 5.734-7.373 12.288-15.155 19.251-22.528 4.506-4.915 9.421-10.24 14.746-14.746 58.982-56.115 142.131-91.341 235.11-91.341 47.514 0 92.57 9.421 133.53 26.214 28.262-26.624 77.414-60.621 145.818-60.621 15.974 0 33.178 2.048 51.2 6.144 7.782 1.638 13.517 8.192 13.926 16.384 0.819 9.421-4.096 16.794-11.469 19.251-2.867 0.819-68.813 26.214-86.426 96.256zM876.954 33.075c-10.65-5.325-22.118-10.24-33.587-14.336-33.587-11.878-69.632-18.432-108.134-18.432-67.994 0-131.072 21.299-180.634 56.525-11.059 7.782-20.48 15.974-29.901 24.986-3.686 2.867-6.554 6.554-9.83 9.421-6.144 6.144-11.469 13.107-16.794 19.661-32.768 41.779-51.61 92.57-51.61 147.046 0 142.131 129.434 258.048 288.768 258.048 27.443 0 54.067-3.686 79.872-9.83 12.288-3.277 24.166-7.373 35.635-11.878 42.598-16.384 79.872-42.189 109.363-74.138 10.24-11.059 19.251-22.938 27.443-36.045 23.757-37.274 36.864-80.282 36.864-126.157 0-55.296-19.251-106.496-52.838-148.685l-0.41-0.41c-2.867-3.686-5.734-6.963-8.602-10.24-6.144-6.554-12.288-13.517-18.842-19.661 1.229-14.336 4.915-27.034 9.421-38.912 13.107-33.587 34.406-57.754 54.477-74.138-47.104 1.638-81.92 21.709-104.448 40.55-12.288 10.24-20.89 20.070-26.214 26.624z" />
<glyph unicode="&#xe92a;" glyph-name="instrument" horiz-adv-x="778" d="M267.878 959.181c-6.144 2.048-13.107 0.819-18.432-3.277s-8.192-10.24-8.192-16.794v-95.846h-94.618l-0.41 95.846c0 6.554-2.867 12.698-8.192 16.794s-12.288 5.325-18.432 3.277c-70.451-21.709-119.603-90.931-119.603-168.755 0-58.982 27.034-115.098 72.909-151.962v-379.699c-45.875-36.864-72.909-92.979-72.909-151.962 0-77.824 49.152-144.998 119.603-166.707 6.144-1.638 13.107-2.867 18.432 1.229s8.192 10.24 8.192 16.794v95.846h95.027v-95.846c0-6.554 2.867-12.698 8.192-16.794s13.107-4.915 18.432-3.277c70.451 21.709 119.603 90.931 119.603 168.755 0 58.982-27.034 115.098-72.909 151.962v379.699c45.875 36.864 72.909 92.979 72.909 151.962 0 77.824-49.152 147.046-119.603 168.755zM345.702 106.803c0-48.742-24.986-92.979-63.078-116.326v84.378c0 11.469-9.011 20.89-20.89 20.89h-135.987c-11.878 0-20.89-9.421-20.89-20.89v-84.378c-38.093 23.347-63.078 67.584-63.078 116.326 0 49.152 23.757 95.846 64.307 124.518 5.325 3.686 8.602 10.24 8.602 17.203v400.179c0 6.963-3.277 13.517-8.602 17.203-40.55 28.672-64.307 75.366-64.307 124.518 0 48.742 24.986 92.979 63.078 116.326v-84.378c0-11.469 9.011-20.89 20.89-20.89h135.987c11.878 0 20.89 9.421 20.89 20.89v84.378c38.093-23.347 63.078-67.584 63.078-116.326 0-49.152-23.757-95.846-64.307-124.518-5.325-3.686-8.602-10.24-8.602-17.203v-400.179c0-6.963 3.277-13.517 8.602-17.203 40.55-28.672 64.307-75.366 64.307-124.518zM730.726 748.646l36.454 58.982c3.686 5.734 4.096 12.698 1.638 18.842l-49.971 120.832c-3.277 7.782-11.059 12.698-19.251 12.698h-83.558c-8.602 0-15.974-4.915-19.251-12.698l-50.381-120.832c-2.458-6.144-1.638-13.107 1.638-18.842l36.454-58.982v-255.59c-29.491-6.554-52.019-33.178-52.019-65.126v-424.755c0-37.274 29.901-67.174 66.765-67.174h116.736c36.864 0 66.765 29.901 66.765 67.174v424.755c0 31.949-22.118 58.573-52.019 65.126zM685.67 918.221l40.55-97.894-33.997-54.477c-2.048-3.686-3.277-7.373-3.277-11.059v-260.096h-62.669v260.096c0 3.686-0.819 7.373-2.867 11.059l-33.997 54.477 40.55 97.894zM715.981-22.221h-116.736c-13.926 0-24.986 11.469-24.986 25.395v424.755c0 13.926 11.059 24.986 24.986 24.986h116.736c13.926 0 24.986-11.059 24.986-24.986v-424.755c0-13.926-11.059-25.395-24.986-25.395z" />
</font>
</defs>
</svg>
